<?xml version="1.0" encoding="utf-8"?>
<!-- Generator: Adobe Illustrator 21.0.0, SVG Export Plug-In . SVG Version: 6.00 Build 0)  -->
<svg version="1.1" id="Layer_1" xmlns="http://www.w3.org/2000/svg" xmlns:xlink="http://www.w3.org/1999/xlink" x="0px" y="0px"
	 width="1400px" height="980px" viewBox="0 0 1400 980" style="enable-background:new 0 0 1400 980;" xml:space="preserve">
<style type="text/css">
	.st0{fill:#F8F8F9;}
	.st1{fill:#EBEBEC;}
	.st2{fill:#FFFFFF;}
	.st3{fill:#44515C;}
	.st4{fill:#53B5A8;}
	.st5{fill:#FFDDB3;}
	.st6{fill:#FECB8B;}
	.st7{fill:#B08481;}
	.st8{fill:#C5A6A2;}
	.st9{fill:#D9F1FD;}
	.st10{fill:#B9E5FB;}
	.st11{fill:#FFFDEB;}
	.st12{fill:#9896CA;}
	.st13{fill:#936362;}
	.st14{fill:#F6F0C5;}
	.st15{fill:#C2C4C6;}
	.st16{fill:#B6B8BA;}
	.st17{fill:#A67775;}
	.st18{fill:#F47A5B;}
	.st19{fill:#EFE6E3;}
	.st20{fill:#00967F;}
	.st21{fill:#E26F61;}
	.st22{fill:#644242;}
	.st23{fill:#FFECBA;}
	.st24{fill:#B1B4D6;}
	.st25{fill:#657585;}
</style>
<rect class="st0" width="1400" height="980"/>
<g>
	<g>
		<path class="st1" d="M1106.0649,251.5465h-62.7695c-4.3689,0-7.9105,3.5416-7.9105,7.9104v11.9494
			c0,4.3688,3.5416,7.9104,7.9105,7.9104h62.7695c4.3688,0,7.9104-3.5416,7.9104-7.9104v-11.9494
			C1113.9753,255.0881,1110.4337,251.5465,1106.0649,251.5465z"/>
		<path class="st1" d="M999.0133,251.5465h-62.7695c-4.3688,0-7.9105,3.5416-7.9105,7.9104v11.9494
			c0,4.3688,3.5416,7.9104,7.9105,7.9104h62.7695c4.3689,0,7.9105-3.5416,7.9105-7.9104v-11.9494
			C1006.9238,255.0881,1003.3822,251.5465,999.0133,251.5465z"/>
		<path class="st1" d="M891.9618,251.5465h-62.7695c-4.3688,0-7.9105,3.5416-7.9105,7.9104v11.9494
			c0,4.3688,3.5416,7.9104,7.9105,7.9104h62.7695c4.3688,0,7.9105-3.5416,7.9105-7.9104v-11.9494
			C899.8723,255.0881,896.3306,251.5465,891.9618,251.5465z"/>
		<path class="st1" d="M784.9102,251.5465h-62.7695c-4.3689,0-7.9105,3.5416-7.9105,7.9104v11.9494
			c0,4.3688,3.5416,7.9104,7.9105,7.9104h62.7695c4.3688,0,7.9105-3.5416,7.9105-7.9104v-11.9494
			C792.8207,255.0881,789.2791,251.5465,784.9102,251.5465z"/>
		<path class="st1" d="M677.8586,251.5465h-62.7695c-4.3688,0-7.9105,3.5416-7.9105,7.9104v11.9494
			c0,4.3688,3.5416,7.9104,7.9105,7.9104h62.7695c4.3688,0,7.9105-3.5416,7.9105-7.9104v-11.9494
			C685.7691,255.0881,682.2275,251.5465,677.8586,251.5465z"/>
		<path class="st1" d="M570.8071,251.5465h-62.7695c-4.3688,0-7.9105,3.5416-7.9105,7.9104v11.9494
			c0,4.3688,3.5416,7.9104,7.9105,7.9104h62.7695c4.3689,0,7.9105-3.5416,7.9105-7.9104v-11.9494
			C578.7175,255.0881,575.176,251.5465,570.8071,251.5465z"/>
		<path class="st1" d="M463.7555,251.5465h-62.7695c-4.3689,0-7.9105,3.5416-7.9105,7.9104v11.9494
			c0,4.3688,3.5416,7.9104,7.9105,7.9104h62.7695c4.3689,0,7.9105-3.5416,7.9105-7.9104v-11.9494
			C471.666,255.0881,468.1244,251.5465,463.7555,251.5465z"/>
		<path class="st1" d="M356.704,251.5465h-62.7695c-4.3688,0-7.9105,3.5416-7.9105,7.9104v11.9494
			c0,4.3688,3.5416,7.9104,7.9105,7.9104h62.7695c4.3688,0,7.9105-3.5416,7.9105-7.9104v-11.9494
			C364.6144,255.0881,361.0728,251.5465,356.704,251.5465z"/>
	</g>
	<g>
		<path class="st1" d="M1052.5391,212.4576h-62.7694c-4.3689,0-7.9105,3.5416-7.9105,7.9104v11.9494
			c0,4.3688,3.5416,7.9104,7.9105,7.9104h62.7694c4.3689,0,7.9105-3.5416,7.9105-7.9104V220.368
			C1060.4496,215.9992,1056.908,212.4576,1052.5391,212.4576z"/>
		<path class="st1" d="M945.4875,212.4576h-62.7695c-4.3688,0-7.9105,3.5416-7.9105,7.9104v11.9494
			c0,4.3688,3.5416,7.9104,7.9105,7.9104h62.7695c4.3688,0,7.9105-3.5416,7.9105-7.9104V220.368
			C953.398,215.9992,949.8564,212.4576,945.4875,212.4576z"/>
		<path class="st1" d="M838.436,212.4576h-62.7695c-4.3688,0-7.9105,3.5416-7.9105,7.9104v11.9494
			c0,4.3688,3.5416,7.9104,7.9105,7.9104h62.7695c4.3689,0,7.9105-3.5416,7.9105-7.9104V220.368
			C846.3464,215.9992,842.8049,212.4576,838.436,212.4576z"/>
		<path class="st1" d="M731.3845,212.4576h-62.7695c-4.3688,0-7.9105,3.5416-7.9105,7.9104v11.9494
			c0,4.3688,3.5416,7.9104,7.9105,7.9104h62.7695c4.3688,0,7.9105-3.5416,7.9105-7.9104V220.368
			C739.2949,215.9992,735.7533,212.4576,731.3845,212.4576z"/>
		<path class="st1" d="M624.3329,212.4576h-62.7695c-4.3689,0-7.9105,3.5416-7.9105,7.9104v11.9494
			c0,4.3688,3.5416,7.9104,7.9105,7.9104h62.7695c4.3688,0,7.9105-3.5416,7.9105-7.9104V220.368
			C632.2433,215.9992,628.7017,212.4576,624.3329,212.4576z"/>
		<path class="st1" d="M517.2813,212.4576h-62.7695c-4.3689,0-7.9105,3.5416-7.9105,7.9104v11.9494
			c0,4.3688,3.5416,7.9104,7.9105,7.9104h62.7695c4.3688,0,7.9105-3.5416,7.9105-7.9104V220.368
			C525.1918,215.9992,521.6501,212.4576,517.2813,212.4576z"/>
		<path class="st1" d="M410.2298,212.4576h-62.7695c-4.3688,0-7.9105,3.5416-7.9105,7.9104v11.9494
			c0,4.3688,3.5416,7.9104,7.9105,7.9104h62.7695c4.3688,0,7.9105-3.5416,7.9105-7.9104V220.368
			C418.1402,215.9992,414.5986,212.4576,410.2298,212.4576z"/>
	</g>
	<g>
		<path class="st1" d="M1213.1165,332.9879h-62.7695c-4.3688,0-7.9104,3.5416-7.9104,7.9104v11.9493
			c0,4.3688,3.5416,7.9104,7.9104,7.9104h62.7695c4.3689,0,7.9104-3.5416,7.9104-7.9104v-11.9493
			C1221.0269,336.5295,1217.4854,332.9879,1213.1165,332.9879z"/>
		<path class="st1" d="M1106.0649,332.9879h-62.7695c-4.3689,0-7.9105,3.5416-7.9105,7.9104v11.9493
			c0,4.3688,3.5416,7.9104,7.9105,7.9104h62.7695c4.3688,0,7.9104-3.5416,7.9104-7.9104v-11.9493
			C1113.9753,336.5295,1110.4337,332.9879,1106.0649,332.9879z"/>
		<path class="st1" d="M999.0133,332.9879h-62.7695c-4.3688,0-7.9105,3.5416-7.9105,7.9104v11.9493
			c0,4.3688,3.5416,7.9104,7.9105,7.9104h62.7695c4.3689,0,7.9105-3.5416,7.9105-7.9104v-11.9493
			C1006.9238,336.5295,1003.3822,332.9879,999.0133,332.9879z"/>
		<path class="st1" d="M891.9618,332.9879h-62.7695c-4.3688,0-7.9105,3.5416-7.9105,7.9104v11.9493
			c0,4.3688,3.5416,7.9104,7.9105,7.9104h62.7695c4.3688,0,7.9105-3.5416,7.9105-7.9104v-11.9493
			C899.8723,336.5295,896.3306,332.9879,891.9618,332.9879z"/>
		<path class="st1" d="M784.9102,332.9879h-62.7695c-4.3689,0-7.9105,3.5416-7.9105,7.9104v11.9493
			c0,4.3688,3.5416,7.9104,7.9105,7.9104h62.7695c4.3688,0,7.9105-3.5416,7.9105-7.9104v-11.9493
			C792.8207,336.5295,789.2791,332.9879,784.9102,332.9879z"/>
		<path class="st1" d="M677.8586,332.9879h-62.7695c-4.3688,0-7.9105,3.5416-7.9105,7.9104v11.9493
			c0,4.3688,3.5416,7.9104,7.9105,7.9104h62.7695c4.3688,0,7.9105-3.5416,7.9105-7.9104v-11.9493
			C685.7691,336.5295,682.2275,332.9879,677.8586,332.9879z"/>
		<path class="st1" d="M570.8071,332.9879h-62.7695c-4.3688,0-7.9105,3.5416-7.9105,7.9104v11.9493
			c0,4.3688,3.5416,7.9104,7.9105,7.9104h62.7695c4.3689,0,7.9105-3.5416,7.9105-7.9104v-11.9493
			C578.7175,336.5295,575.176,332.9879,570.8071,332.9879z"/>
		<path class="st1" d="M463.7555,332.9879h-62.7695c-4.3689,0-7.9105,3.5416-7.9105,7.9104v11.9493
			c0,4.3688,3.5416,7.9104,7.9105,7.9104h62.7695c4.3689,0,7.9105-3.5416,7.9105-7.9104v-11.9493
			C471.666,336.5295,468.1244,332.9879,463.7555,332.9879z"/>
		<path class="st1" d="M356.704,332.9879h-62.7695c-4.3688,0-7.9105,3.5416-7.9105,7.9104v11.9493
			c0,4.3688,3.5416,7.9104,7.9105,7.9104h62.7695c4.3688,0,7.9105-3.5416,7.9105-7.9104v-11.9493
			C364.6144,336.5295,361.0728,332.9879,356.704,332.9879z"/>
		<path class="st1" d="M249.6524,332.9879h-62.7695c-4.3689,0-7.9105,3.5416-7.9105,7.9104v11.9493
			c0,4.3688,3.5416,7.9104,7.9105,7.9104h62.7695c4.3689,0,7.9105-3.5416,7.9105-7.9104v-11.9493
			C257.5629,336.5295,254.0213,332.9879,249.6524,332.9879z"/>
	</g>
	<g>
		<path class="st1" d="M1159.5907,293.899h-62.7695c-4.3688,0-7.9104,3.5416-7.9104,7.9104v11.9494
			c0,4.3688,3.5416,7.9104,7.9104,7.9104h62.7695c4.3688,0,7.9104-3.5416,7.9104-7.9104v-11.9494
			C1167.5011,297.4406,1163.9595,293.899,1159.5907,293.899z"/>
		<path class="st1" d="M1052.5391,293.899h-62.7694c-4.3689,0-7.9105,3.5416-7.9105,7.9104v11.9494
			c0,4.3688,3.5416,7.9104,7.9105,7.9104h62.7694c4.3689,0,7.9105-3.5416,7.9105-7.9104v-11.9494
			C1060.4496,297.4406,1056.908,293.899,1052.5391,293.899z"/>
		<path class="st1" d="M945.4875,293.899h-62.7695c-4.3688,0-7.9105,3.5416-7.9105,7.9104v11.9494
			c0,4.3688,3.5416,7.9104,7.9105,7.9104h62.7695c4.3688,0,7.9105-3.5416,7.9105-7.9104v-11.9494
			C953.398,297.4406,949.8564,293.899,945.4875,293.899z"/>
		<path class="st1" d="M838.436,293.899h-62.7695c-4.3688,0-7.9105,3.5416-7.9105,7.9104v11.9494
			c0,4.3688,3.5416,7.9104,7.9105,7.9104h62.7695c4.3689,0,7.9105-3.5416,7.9105-7.9104v-11.9494
			C846.3464,297.4406,842.8049,293.899,838.436,293.899z"/>
		<path class="st1" d="M731.3845,293.899h-62.7695c-4.3688,0-7.9105,3.5416-7.9105,7.9104v11.9494
			c0,4.3688,3.5416,7.9104,7.9105,7.9104h62.7695c4.3688,0,7.9105-3.5416,7.9105-7.9104v-11.9494
			C739.2949,297.4406,735.7533,293.899,731.3845,293.899z"/>
		<path class="st1" d="M624.3329,293.899h-62.7695c-4.3689,0-7.9105,3.5416-7.9105,7.9104v11.9494
			c0,4.3688,3.5416,7.9104,7.9105,7.9104h62.7695c4.3688,0,7.9105-3.5416,7.9105-7.9104v-11.9494
			C632.2433,297.4406,628.7017,293.899,624.3329,293.899z"/>
		<path class="st1" d="M517.2813,293.899h-62.7695c-4.3689,0-7.9105,3.5416-7.9105,7.9104v11.9494
			c0,4.3688,3.5416,7.9104,7.9105,7.9104h62.7695c4.3688,0,7.9105-3.5416,7.9105-7.9104v-11.9494
			C525.1918,297.4406,521.6501,293.899,517.2813,293.899z"/>
		<path class="st1" d="M410.2298,293.899h-62.7695c-4.3688,0-7.9105,3.5416-7.9105,7.9104v11.9494
			c0,4.3688,3.5416,7.9104,7.9105,7.9104h62.7695c4.3688,0,7.9105-3.5416,7.9105-7.9104v-11.9494
			C418.1402,297.4406,414.5986,293.899,410.2298,293.899z"/>
		<path class="st1" d="M303.1782,293.899h-62.7695c-4.3689,0-7.9105,3.5416-7.9105,7.9104v11.9494
			c0,4.3688,3.5416,7.9104,7.9105,7.9104h62.7695c4.3689,0,7.9105-3.5416,7.9105-7.9104v-11.9494
			C311.0887,297.4406,307.5471,293.899,303.1782,293.899z"/>
	</g>
	<g>
		<path class="st1" d="M1213.1165,414.4294h-62.7695c-4.3688,0-7.9104,3.5416-7.9104,7.9104v11.9494
			c0,4.3688,3.5416,7.9104,7.9104,7.9104h62.7695c4.3689,0,7.9104-3.5416,7.9104-7.9104v-11.9494
			C1221.0269,417.971,1217.4854,414.4294,1213.1165,414.4294z"/>
		<path class="st1" d="M1106.0649,414.4294h-62.7695c-4.3689,0-7.9105,3.5416-7.9105,7.9104v11.9494
			c0,4.3688,3.5416,7.9104,7.9105,7.9104h62.7695c4.3688,0,7.9104-3.5416,7.9104-7.9104v-11.9494
			C1113.9753,417.971,1110.4337,414.4294,1106.0649,414.4294z"/>
		<path class="st1" d="M999.0133,414.4294h-62.7695c-4.3688,0-7.9105,3.5416-7.9105,7.9104v11.9494
			c0,4.3688,3.5416,7.9104,7.9105,7.9104h62.7695c4.3689,0,7.9105-3.5416,7.9105-7.9104v-11.9494
			C1006.9238,417.971,1003.3822,414.4294,999.0133,414.4294z"/>
		<path class="st1" d="M891.9618,414.4294h-62.7695c-4.3688,0-7.9105,3.5416-7.9105,7.9104v11.9494
			c0,4.3688,3.5416,7.9104,7.9105,7.9104h62.7695c4.3688,0,7.9105-3.5416,7.9105-7.9104v-11.9494
			C899.8723,417.971,896.3306,414.4294,891.9618,414.4294z"/>
		<path class="st1" d="M784.9102,414.4294h-62.7695c-4.3689,0-7.9105,3.5416-7.9105,7.9104v11.9494
			c0,4.3688,3.5416,7.9104,7.9105,7.9104h62.7695c4.3688,0,7.9105-3.5416,7.9105-7.9104v-11.9494
			C792.8207,417.971,789.2791,414.4294,784.9102,414.4294z"/>
		<path class="st1" d="M677.8586,414.4294h-62.7695c-4.3688,0-7.9105,3.5416-7.9105,7.9104v11.9494
			c0,4.3688,3.5416,7.9104,7.9105,7.9104h62.7695c4.3688,0,7.9105-3.5416,7.9105-7.9104v-11.9494
			C685.7691,417.971,682.2275,414.4294,677.8586,414.4294z"/>
		<path class="st1" d="M570.8071,414.4294h-62.7695c-4.3688,0-7.9105,3.5416-7.9105,7.9104v11.9494
			c0,4.3688,3.5416,7.9104,7.9105,7.9104h62.7695c4.3689,0,7.9105-3.5416,7.9105-7.9104v-11.9494
			C578.7175,417.971,575.176,414.4294,570.8071,414.4294z"/>
		<path class="st1" d="M463.7555,414.4294h-62.7695c-4.3689,0-7.9105,3.5416-7.9105,7.9104v11.9494
			c0,4.3688,3.5416,7.9104,7.9105,7.9104h62.7695c4.3689,0,7.9105-3.5416,7.9105-7.9104v-11.9494
			C471.666,417.971,468.1244,414.4294,463.7555,414.4294z"/>
		<path class="st1" d="M356.704,414.4294h-62.7695c-4.3688,0-7.9105,3.5416-7.9105,7.9104v11.9494
			c0,4.3688,3.5416,7.9104,7.9105,7.9104h62.7695c4.3688,0,7.9105-3.5416,7.9105-7.9104v-11.9494
			C364.6144,417.971,361.0728,414.4294,356.704,414.4294z"/>
		<path class="st1" d="M249.6524,414.4294h-62.7695c-4.3689,0-7.9105,3.5416-7.9105,7.9104v11.9494
			c0,4.3688,3.5416,7.9104,7.9105,7.9104h62.7695c4.3689,0,7.9105-3.5416,7.9105-7.9104v-11.9494
			C257.5629,417.971,254.0213,414.4294,249.6524,414.4294z"/>
	</g>
	<g>
		<path class="st1" d="M1159.5907,375.3405h-62.7695c-4.3688,0-7.9104,3.5416-7.9104,7.9104v11.9493
			c0,4.3688,3.5416,7.9104,7.9104,7.9104h62.7695c4.3688,0,7.9104-3.5416,7.9104-7.9104v-11.9493
			C1167.5011,378.8821,1163.9595,375.3405,1159.5907,375.3405z"/>
		<path class="st1" d="M1052.5391,375.3405h-62.7694c-4.3689,0-7.9105,3.5416-7.9105,7.9104v11.9493
			c0,4.3688,3.5416,7.9104,7.9105,7.9104h62.7694c4.3689,0,7.9105-3.5416,7.9105-7.9104v-11.9493
			C1060.4496,378.8821,1056.908,375.3405,1052.5391,375.3405z"/>
		<path class="st1" d="M945.4875,375.3405h-62.7695c-4.3688,0-7.9105,3.5416-7.9105,7.9104v11.9493
			c0,4.3688,3.5416,7.9104,7.9105,7.9104h62.7695c4.3688,0,7.9105-3.5416,7.9105-7.9104v-11.9493
			C953.398,378.8821,949.8564,375.3405,945.4875,375.3405z"/>
		<path class="st1" d="M838.436,375.3405h-62.7695c-4.3688,0-7.9105,3.5416-7.9105,7.9104v11.9493
			c0,4.3688,3.5416,7.9104,7.9105,7.9104h62.7695c4.3689,0,7.9105-3.5416,7.9105-7.9104v-11.9493
			C846.3464,378.8821,842.8049,375.3405,838.436,375.3405z"/>
		<path class="st1" d="M731.3845,375.3405h-62.7695c-4.3688,0-7.9105,3.5416-7.9105,7.9104v11.9493
			c0,4.3688,3.5416,7.9104,7.9105,7.9104h62.7695c4.3688,0,7.9105-3.5416,7.9105-7.9104v-11.9493
			C739.2949,378.8821,735.7533,375.3405,731.3845,375.3405z"/>
		<path class="st1" d="M624.3329,375.3405h-62.7695c-4.3689,0-7.9105,3.5416-7.9105,7.9104v11.9493
			c0,4.3688,3.5416,7.9104,7.9105,7.9104h62.7695c4.3688,0,7.9105-3.5416,7.9105-7.9104v-11.9493
			C632.2433,378.8821,628.7017,375.3405,624.3329,375.3405z"/>
		<path class="st1" d="M517.2813,375.3405h-62.7695c-4.3689,0-7.9105,3.5416-7.9105,7.9104v11.9493
			c0,4.3688,3.5416,7.9104,7.9105,7.9104h62.7695c4.3688,0,7.9105-3.5416,7.9105-7.9104v-11.9493
			C525.1918,378.8821,521.6501,375.3405,517.2813,375.3405z"/>
		<path class="st1" d="M410.2298,375.3405h-62.7695c-4.3688,0-7.9105,3.5416-7.9105,7.9104v11.9493
			c0,4.3688,3.5416,7.9104,7.9105,7.9104h62.7695c4.3688,0,7.9105-3.5416,7.9105-7.9104v-11.9493
			C418.1402,378.8821,414.5986,375.3405,410.2298,375.3405z"/>
		<path class="st1" d="M303.1782,375.3405h-62.7695c-4.3689,0-7.9105,3.5416-7.9105,7.9104v11.9493
			c0,4.3688,3.5416,7.9104,7.9105,7.9104h62.7695c4.3689,0,7.9105-3.5416,7.9105-7.9104v-11.9493
			C311.0887,378.8821,307.5471,375.3405,303.1782,375.3405z"/>
	</g>
	<g>
		<path class="st1" d="M1213.1165,495.8709h-62.7695c-4.3688,0-7.9104,3.5416-7.9104,7.9104v11.9493
			c0,4.3688,3.5416,7.9104,7.9104,7.9104h62.7695c4.3689,0,7.9104-3.5416,7.9104-7.9104v-11.9493
			C1221.0269,499.4125,1217.4854,495.8709,1213.1165,495.8709z"/>
		<path class="st1" d="M1106.0649,495.8709h-62.7695c-4.3689,0-7.9105,3.5416-7.9105,7.9104v11.9493
			c0,4.3688,3.5416,7.9104,7.9105,7.9104h62.7695c4.3688,0,7.9104-3.5416,7.9104-7.9104v-11.9493
			C1113.9753,499.4125,1110.4337,495.8709,1106.0649,495.8709z"/>
		<path class="st1" d="M999.0133,495.8709h-62.7695c-4.3688,0-7.9105,3.5416-7.9105,7.9104v11.9493
			c0,4.3688,3.5416,7.9104,7.9105,7.9104h62.7695c4.3689,0,7.9105-3.5416,7.9105-7.9104v-11.9493
			C1006.9238,499.4125,1003.3822,495.8709,999.0133,495.8709z"/>
		<path class="st1" d="M891.9618,495.8709h-62.7695c-4.3688,0-7.9105,3.5416-7.9105,7.9104v11.9493
			c0,4.3688,3.5416,7.9104,7.9105,7.9104h62.7695c4.3688,0,7.9105-3.5416,7.9105-7.9104v-11.9493
			C899.8723,499.4125,896.3306,495.8709,891.9618,495.8709z"/>
		<path class="st1" d="M784.9102,495.8709h-62.7695c-4.3689,0-7.9105,3.5416-7.9105,7.9104v11.9493
			c0,4.3688,3.5416,7.9104,7.9105,7.9104h62.7695c4.3688,0,7.9105-3.5416,7.9105-7.9104v-11.9493
			C792.8207,499.4125,789.2791,495.8709,784.9102,495.8709z"/>
		<path class="st1" d="M677.8586,495.8709h-62.7695c-4.3688,0-7.9105,3.5416-7.9105,7.9104v11.9493
			c0,4.3688,3.5416,7.9104,7.9105,7.9104h62.7695c4.3688,0,7.9105-3.5416,7.9105-7.9104v-11.9493
			C685.7691,499.4125,682.2275,495.8709,677.8586,495.8709z"/>
		<path class="st1" d="M570.8071,495.8709h-62.7695c-4.3688,0-7.9105,3.5416-7.9105,7.9104v11.9493
			c0,4.3688,3.5416,7.9104,7.9105,7.9104h62.7695c4.3689,0,7.9105-3.5416,7.9105-7.9104v-11.9493
			C578.7175,499.4125,575.176,495.8709,570.8071,495.8709z"/>
		<path class="st1" d="M463.7555,495.8709h-62.7695c-4.3689,0-7.9105,3.5416-7.9105,7.9104v11.9493
			c0,4.3688,3.5416,7.9104,7.9105,7.9104h62.7695c4.3689,0,7.9105-3.5416,7.9105-7.9104v-11.9493
			C471.666,499.4125,468.1244,495.8709,463.7555,495.8709z"/>
		<path class="st1" d="M356.704,495.8709h-62.7695c-4.3688,0-7.9105,3.5416-7.9105,7.9104v11.9493
			c0,4.3688,3.5416,7.9104,7.9105,7.9104h62.7695c4.3688,0,7.9105-3.5416,7.9105-7.9104v-11.9493
			C364.6144,499.4125,361.0728,495.8709,356.704,495.8709z"/>
		<path class="st1" d="M249.6524,495.8709h-62.7695c-4.3689,0-7.9105,3.5416-7.9105,7.9104v11.9493
			c0,4.3688,3.5416,7.9104,7.9105,7.9104h62.7695c4.3689,0,7.9105-3.5416,7.9105-7.9104v-11.9493
			C257.5629,499.4125,254.0213,495.8709,249.6524,495.8709z"/>
	</g>
	<g>
		<path class="st1" d="M1159.5907,456.782h-62.7695c-4.3688,0-7.9104,3.5416-7.9104,7.9104v11.9494
			c0,4.3688,3.5416,7.9104,7.9104,7.9104h62.7695c4.3688,0,7.9104-3.5416,7.9104-7.9104v-11.9494
			C1167.5011,460.3236,1163.9595,456.782,1159.5907,456.782z"/>
		<path class="st1" d="M1052.5391,456.782h-62.7694c-4.3689,0-7.9105,3.5416-7.9105,7.9104v11.9494
			c0,4.3688,3.5416,7.9104,7.9105,7.9104h62.7694c4.3689,0,7.9105-3.5416,7.9105-7.9104v-11.9494
			C1060.4496,460.3236,1056.908,456.782,1052.5391,456.782z"/>
		<path class="st1" d="M945.4875,456.782h-62.7695c-4.3688,0-7.9105,3.5416-7.9105,7.9104v11.9494
			c0,4.3688,3.5416,7.9104,7.9105,7.9104h62.7695c4.3688,0,7.9105-3.5416,7.9105-7.9104v-11.9494
			C953.398,460.3236,949.8564,456.782,945.4875,456.782z"/>
		<path class="st1" d="M838.436,456.782h-62.7695c-4.3688,0-7.9105,3.5416-7.9105,7.9104v11.9494
			c0,4.3688,3.5416,7.9104,7.9105,7.9104h62.7695c4.3689,0,7.9105-3.5416,7.9105-7.9104v-11.9494
			C846.3464,460.3236,842.8049,456.782,838.436,456.782z"/>
		<path class="st1" d="M731.3845,456.782h-62.7695c-4.3688,0-7.9105,3.5416-7.9105,7.9104v11.9494
			c0,4.3688,3.5416,7.9104,7.9105,7.9104h62.7695c4.3688,0,7.9105-3.5416,7.9105-7.9104v-11.9494
			C739.2949,460.3236,735.7533,456.782,731.3845,456.782z"/>
		<path class="st1" d="M624.3329,456.782h-62.7695c-4.3689,0-7.9105,3.5416-7.9105,7.9104v11.9494
			c0,4.3688,3.5416,7.9104,7.9105,7.9104h62.7695c4.3688,0,7.9105-3.5416,7.9105-7.9104v-11.9494
			C632.2433,460.3236,628.7017,456.782,624.3329,456.782z"/>
		<path class="st1" d="M517.2813,456.782h-62.7695c-4.3689,0-7.9105,3.5416-7.9105,7.9104v11.9494
			c0,4.3688,3.5416,7.9104,7.9105,7.9104h62.7695c4.3688,0,7.9105-3.5416,7.9105-7.9104v-11.9494
			C525.1918,460.3236,521.6501,456.782,517.2813,456.782z"/>
		<path class="st1" d="M410.2298,456.782h-62.7695c-4.3688,0-7.9105,3.5416-7.9105,7.9104v11.9494
			c0,4.3688,3.5416,7.9104,7.9105,7.9104h62.7695c4.3688,0,7.9105-3.5416,7.9105-7.9104v-11.9494
			C418.1402,460.3236,414.5986,456.782,410.2298,456.782z"/>
		<path class="st1" d="M303.1782,456.782h-62.7695c-4.3689,0-7.9105,3.5416-7.9105,7.9104v11.9494
			c0,4.3688,3.5416,7.9104,7.9105,7.9104h62.7695c4.3689,0,7.9105-3.5416,7.9105-7.9104v-11.9494
			C311.0887,460.3236,307.5471,456.782,303.1782,456.782z"/>
	</g>
	<g>
		<path class="st1" d="M1213.1165,577.3124h-62.7695c-4.3688,0-7.9104,3.5416-7.9104,7.9104v11.9493
			c0,4.3688,3.5416,7.9104,7.9104,7.9104h62.7695c4.3689,0,7.9104-3.5416,7.9104-7.9104v-11.9493
			C1221.0269,580.854,1217.4854,577.3124,1213.1165,577.3124z"/>
		<path class="st1" d="M1106.0649,577.3124h-62.7695c-4.3689,0-7.9105,3.5416-7.9105,7.9104v11.9493
			c0,4.3688,3.5416,7.9104,7.9105,7.9104h62.7695c4.3688,0,7.9104-3.5416,7.9104-7.9104v-11.9493
			C1113.9753,580.854,1110.4337,577.3124,1106.0649,577.3124z"/>
		<path class="st1" d="M999.0133,577.3124h-62.7695c-4.3688,0-7.9105,3.5416-7.9105,7.9104v11.9493
			c0,4.3688,3.5416,7.9104,7.9105,7.9104h62.7695c4.3689,0,7.9105-3.5416,7.9105-7.9104v-11.9493
			C1006.9238,580.854,1003.3822,577.3124,999.0133,577.3124z"/>
		<path class="st1" d="M891.9618,577.3124h-62.7695c-4.3688,0-7.9105,3.5416-7.9105,7.9104v11.9493
			c0,4.3688,3.5416,7.9104,7.9105,7.9104h62.7695c4.3688,0,7.9105-3.5416,7.9105-7.9104v-11.9493
			C899.8723,580.854,896.3306,577.3124,891.9618,577.3124z"/>
		<path class="st1" d="M784.9102,577.3124h-62.7695c-4.3689,0-7.9105,3.5416-7.9105,7.9104v11.9493
			c0,4.3688,3.5416,7.9104,7.9105,7.9104h62.7695c4.3688,0,7.9105-3.5416,7.9105-7.9104v-11.9493
			C792.8207,580.854,789.2791,577.3124,784.9102,577.3124z"/>
		<path class="st1" d="M677.8586,577.3124h-62.7695c-4.3688,0-7.9105,3.5416-7.9105,7.9104v11.9493
			c0,4.3688,3.5416,7.9104,7.9105,7.9104h62.7695c4.3688,0,7.9105-3.5416,7.9105-7.9104v-11.9493
			C685.7691,580.854,682.2275,577.3124,677.8586,577.3124z"/>
		<path class="st1" d="M570.8071,577.3124h-62.7695c-4.3688,0-7.9105,3.5416-7.9105,7.9104v11.9493
			c0,4.3688,3.5416,7.9104,7.9105,7.9104h62.7695c4.3689,0,7.9105-3.5416,7.9105-7.9104v-11.9493
			C578.7175,580.854,575.176,577.3124,570.8071,577.3124z"/>
		<path class="st1" d="M463.7555,577.3124h-62.7695c-4.3689,0-7.9105,3.5416-7.9105,7.9104v11.9493
			c0,4.3688,3.5416,7.9104,7.9105,7.9104h62.7695c4.3689,0,7.9105-3.5416,7.9105-7.9104v-11.9493
			C471.666,580.854,468.1244,577.3124,463.7555,577.3124z"/>
		<path class="st1" d="M356.704,577.3124h-62.7695c-4.3688,0-7.9105,3.5416-7.9105,7.9104v11.9493
			c0,4.3688,3.5416,7.9104,7.9105,7.9104h62.7695c4.3688,0,7.9105-3.5416,7.9105-7.9104v-11.9493
			C364.6144,580.854,361.0728,577.3124,356.704,577.3124z"/>
		<path class="st1" d="M249.6524,577.3124h-62.7695c-4.3689,0-7.9105,3.5416-7.9105,7.9104v11.9493
			c0,4.3688,3.5416,7.9104,7.9105,7.9104h62.7695c4.3689,0,7.9105-3.5416,7.9105-7.9104v-11.9493
			C257.5629,580.854,254.0213,577.3124,249.6524,577.3124z"/>
	</g>
	<g>
		<path class="st1" d="M1159.5907,538.2234h-62.7695c-4.3688,0-7.9104,3.5416-7.9104,7.9104v11.9494
			c0,4.3688,3.5416,7.9104,7.9104,7.9104h62.7695c4.3688,0,7.9104-3.5416,7.9104-7.9104v-11.9494
			C1167.5011,541.7651,1163.9595,538.2234,1159.5907,538.2234z"/>
		<path class="st1" d="M1052.5391,538.2234h-62.7694c-4.3689,0-7.9105,3.5416-7.9105,7.9104v11.9494
			c0,4.3688,3.5416,7.9104,7.9105,7.9104h62.7694c4.3689,0,7.9105-3.5416,7.9105-7.9104v-11.9494
			C1060.4496,541.7651,1056.908,538.2234,1052.5391,538.2234z"/>
		<path class="st1" d="M945.4875,538.2234h-62.7695c-4.3688,0-7.9105,3.5416-7.9105,7.9104v11.9494
			c0,4.3688,3.5416,7.9104,7.9105,7.9104h62.7695c4.3688,0,7.9105-3.5416,7.9105-7.9104v-11.9494
			C953.398,541.7651,949.8564,538.2234,945.4875,538.2234z"/>
		<path class="st1" d="M838.436,538.2234h-62.7695c-4.3688,0-7.9105,3.5416-7.9105,7.9104v11.9494
			c0,4.3688,3.5416,7.9104,7.9105,7.9104h62.7695c4.3689,0,7.9105-3.5416,7.9105-7.9104v-11.9494
			C846.3464,541.7651,842.8049,538.2234,838.436,538.2234z"/>
		<path class="st1" d="M731.3845,538.2234h-62.7695c-4.3688,0-7.9105,3.5416-7.9105,7.9104v11.9494
			c0,4.3688,3.5416,7.9104,7.9105,7.9104h62.7695c4.3688,0,7.9105-3.5416,7.9105-7.9104v-11.9494
			C739.2949,541.7651,735.7533,538.2234,731.3845,538.2234z"/>
		<path class="st1" d="M624.3329,538.2234h-62.7695c-4.3689,0-7.9105,3.5416-7.9105,7.9104v11.9494
			c0,4.3688,3.5416,7.9104,7.9105,7.9104h62.7695c4.3688,0,7.9105-3.5416,7.9105-7.9104v-11.9494
			C632.2433,541.7651,628.7017,538.2234,624.3329,538.2234z"/>
		<path class="st1" d="M517.2813,538.2234h-62.7695c-4.3689,0-7.9105,3.5416-7.9105,7.9104v11.9494
			c0,4.3688,3.5416,7.9104,7.9105,7.9104h62.7695c4.3688,0,7.9105-3.5416,7.9105-7.9104v-11.9494
			C525.1918,541.7651,521.6501,538.2234,517.2813,538.2234z"/>
		<path class="st1" d="M410.2298,538.2234h-62.7695c-4.3688,0-7.9105,3.5416-7.9105,7.9104v11.9494
			c0,4.3688,3.5416,7.9104,7.9105,7.9104h62.7695c4.3688,0,7.9105-3.5416,7.9105-7.9104v-11.9494
			C418.1402,541.7651,414.5986,538.2234,410.2298,538.2234z"/>
		<path class="st1" d="M303.1782,538.2234h-62.7695c-4.3689,0-7.9105,3.5416-7.9105,7.9104v11.9494
			c0,4.3688,3.5416,7.9104,7.9105,7.9104h62.7695c4.3689,0,7.9105-3.5416,7.9105-7.9104v-11.9494
			C311.0887,541.7651,307.5471,538.2234,303.1782,538.2234z"/>
	</g>
	<g>
		<path class="st1" d="M1213.1165,658.7538h-62.7695c-4.3688,0-7.9104,3.5416-7.9104,7.9104v11.9494
			c0,4.3688,3.5416,7.9104,7.9104,7.9104h62.7695c4.3689,0,7.9104-3.5416,7.9104-7.9104v-11.9494
			C1221.0269,662.2955,1217.4854,658.7538,1213.1165,658.7538z"/>
		<path class="st1" d="M1106.0649,658.7538h-62.7695c-4.3689,0-7.9105,3.5416-7.9105,7.9104v11.9494
			c0,4.3688,3.5416,7.9104,7.9105,7.9104h62.7695c4.3688,0,7.9104-3.5416,7.9104-7.9104v-11.9494
			C1113.9753,662.2955,1110.4337,658.7538,1106.0649,658.7538z"/>
		<path class="st1" d="M999.0133,658.7538h-62.7695c-4.3688,0-7.9105,3.5416-7.9105,7.9104v11.9494
			c0,4.3688,3.5416,7.9104,7.9105,7.9104h62.7695c4.3689,0,7.9105-3.5416,7.9105-7.9104v-11.9494
			C1006.9238,662.2955,1003.3822,658.7538,999.0133,658.7538z"/>
		<path class="st1" d="M891.9618,658.7538h-62.7695c-4.3688,0-7.9105,3.5416-7.9105,7.9104v11.9494
			c0,4.3688,3.5416,7.9104,7.9105,7.9104h62.7695c4.3688,0,7.9105-3.5416,7.9105-7.9104v-11.9494
			C899.8723,662.2955,896.3306,658.7538,891.9618,658.7538z"/>
		<path class="st1" d="M784.9102,658.7538h-62.7695c-4.3689,0-7.9105,3.5416-7.9105,7.9104v11.9494
			c0,4.3688,3.5416,7.9104,7.9105,7.9104h62.7695c4.3688,0,7.9105-3.5416,7.9105-7.9104v-11.9494
			C792.8207,662.2955,789.2791,658.7538,784.9102,658.7538z"/>
		<path class="st1" d="M677.8586,658.7538h-62.7695c-4.3688,0-7.9105,3.5416-7.9105,7.9104v11.9494
			c0,4.3688,3.5416,7.9104,7.9105,7.9104h62.7695c4.3688,0,7.9105-3.5416,7.9105-7.9104v-11.9494
			C685.7691,662.2955,682.2275,658.7538,677.8586,658.7538z"/>
		<path class="st1" d="M570.8071,658.7538h-62.7695c-4.3688,0-7.9105,3.5416-7.9105,7.9104v11.9494
			c0,4.3688,3.5416,7.9104,7.9105,7.9104h62.7695c4.3689,0,7.9105-3.5416,7.9105-7.9104v-11.9494
			C578.7175,662.2955,575.176,658.7538,570.8071,658.7538z"/>
		<path class="st1" d="M463.7555,658.7538h-62.7695c-4.3689,0-7.9105,3.5416-7.9105,7.9104v11.9494
			c0,4.3688,3.5416,7.9104,7.9105,7.9104h62.7695c4.3689,0,7.9105-3.5416,7.9105-7.9104v-11.9494
			C471.666,662.2955,468.1244,658.7538,463.7555,658.7538z"/>
		<path class="st1" d="M356.704,658.7538h-62.7695c-4.3688,0-7.9105,3.5416-7.9105,7.9104v11.9494
			c0,4.3688,3.5416,7.9104,7.9105,7.9104h62.7695c4.3688,0,7.9105-3.5416,7.9105-7.9104v-11.9494
			C364.6144,662.2955,361.0728,658.7538,356.704,658.7538z"/>
		<path class="st1" d="M249.6524,658.7538h-62.7695c-4.3689,0-7.9105,3.5416-7.9105,7.9104v11.9494
			c0,4.3688,3.5416,7.9104,7.9105,7.9104h62.7695c4.3689,0,7.9105-3.5416,7.9105-7.9104v-11.9494
			C257.5629,662.2955,254.0213,658.7538,249.6524,658.7538z"/>
	</g>
	<g>
		<path class="st1" d="M1159.5907,619.665h-62.7695c-4.3688,0-7.9104,3.5416-7.9104,7.9104v11.9493
			c0,4.3688,3.5416,7.9104,7.9104,7.9104h62.7695c4.3688,0,7.9104-3.5416,7.9104-7.9104v-11.9493
			C1167.5011,623.2065,1163.9595,619.665,1159.5907,619.665z"/>
		<path class="st1" d="M1052.5391,619.665h-62.7694c-4.3689,0-7.9105,3.5416-7.9105,7.9104v11.9493
			c0,4.3688,3.5416,7.9104,7.9105,7.9104h62.7694c4.3689,0,7.9105-3.5416,7.9105-7.9104v-11.9493
			C1060.4496,623.2065,1056.908,619.665,1052.5391,619.665z"/>
		<path class="st1" d="M945.4875,619.665h-62.7695c-4.3688,0-7.9105,3.5416-7.9105,7.9104v11.9493
			c0,4.3688,3.5416,7.9104,7.9105,7.9104h62.7695c4.3688,0,7.9105-3.5416,7.9105-7.9104v-11.9493
			C953.398,623.2065,949.8564,619.665,945.4875,619.665z"/>
		<path class="st1" d="M838.436,619.665h-62.7695c-4.3688,0-7.9105,3.5416-7.9105,7.9104v11.9493
			c0,4.3688,3.5416,7.9104,7.9105,7.9104h62.7695c4.3689,0,7.9105-3.5416,7.9105-7.9104v-11.9493
			C846.3464,623.2065,842.8049,619.665,838.436,619.665z"/>
		<path class="st1" d="M731.3845,619.665h-62.7695c-4.3688,0-7.9105,3.5416-7.9105,7.9104v11.9493
			c0,4.3688,3.5416,7.9104,7.9105,7.9104h62.7695c4.3688,0,7.9105-3.5416,7.9105-7.9104v-11.9493
			C739.2949,623.2065,735.7533,619.665,731.3845,619.665z"/>
		<path class="st1" d="M624.3329,619.665h-62.7695c-4.3689,0-7.9105,3.5416-7.9105,7.9104v11.9493
			c0,4.3688,3.5416,7.9104,7.9105,7.9104h62.7695c4.3688,0,7.9105-3.5416,7.9105-7.9104v-11.9493
			C632.2433,623.2065,628.7017,619.665,624.3329,619.665z"/>
		<path class="st1" d="M517.2813,619.665h-62.7695c-4.3689,0-7.9105,3.5416-7.9105,7.9104v11.9493
			c0,4.3688,3.5416,7.9104,7.9105,7.9104h62.7695c4.3688,0,7.9105-3.5416,7.9105-7.9104v-11.9493
			C525.1918,623.2065,521.6501,619.665,517.2813,619.665z"/>
		<path class="st1" d="M410.2298,619.665h-62.7695c-4.3688,0-7.9105,3.5416-7.9105,7.9104v11.9493
			c0,4.3688,3.5416,7.9104,7.9105,7.9104h62.7695c4.3688,0,7.9105-3.5416,7.9105-7.9104v-11.9493
			C418.1402,623.2065,414.5986,619.665,410.2298,619.665z"/>
		<path class="st1" d="M303.1782,619.665h-62.7695c-4.3689,0-7.9105,3.5416-7.9105,7.9104v11.9493
			c0,4.3688,3.5416,7.9104,7.9105,7.9104h62.7695c4.3689,0,7.9105-3.5416,7.9105-7.9104v-11.9493
			C311.0887,623.2065,307.5471,619.665,303.1782,619.665z"/>
	</g>
	<g>
		<path class="st1" d="M1213.1165,740.1954h-62.7695c-4.3688,0-7.9104,3.5416-7.9104,7.9104v11.9493
			c0,4.3688,3.5416,7.9104,7.9104,7.9104h62.7695c4.3689,0,7.9104-3.5416,7.9104-7.9104v-11.9493
			C1221.0269,743.7369,1217.4854,740.1954,1213.1165,740.1954z"/>
		<path class="st1" d="M1106.0649,740.1954h-62.7695c-4.3689,0-7.9105,3.5416-7.9105,7.9104v11.9493
			c0,4.3688,3.5416,7.9104,7.9105,7.9104h62.7695c4.3688,0,7.9104-3.5416,7.9104-7.9104v-11.9493
			C1113.9753,743.7369,1110.4337,740.1954,1106.0649,740.1954z"/>
		<path class="st1" d="M999.0133,740.1954h-62.7695c-4.3688,0-7.9105,3.5416-7.9105,7.9104v11.9493
			c0,4.3688,3.5416,7.9104,7.9105,7.9104h62.7695c4.3689,0,7.9105-3.5416,7.9105-7.9104v-11.9493
			C1006.9238,743.7369,1003.3822,740.1954,999.0133,740.1954z"/>
		<path class="st1" d="M891.9618,740.1954h-62.7695c-4.3688,0-7.9105,3.5416-7.9105,7.9104v11.9493
			c0,4.3688,3.5416,7.9104,7.9105,7.9104h62.7695c4.3688,0,7.9105-3.5416,7.9105-7.9104v-11.9493
			C899.8723,743.7369,896.3306,740.1954,891.9618,740.1954z"/>
		<path class="st1" d="M784.9102,740.1954h-62.7695c-4.3689,0-7.9105,3.5416-7.9105,7.9104v11.9493
			c0,4.3688,3.5416,7.9104,7.9105,7.9104h62.7695c4.3688,0,7.9105-3.5416,7.9105-7.9104v-11.9493
			C792.8207,743.7369,789.2791,740.1954,784.9102,740.1954z"/>
		<path class="st1" d="M677.8586,740.1954h-62.7695c-4.3688,0-7.9105,3.5416-7.9105,7.9104v11.9493
			c0,4.3688,3.5416,7.9104,7.9105,7.9104h62.7695c4.3688,0,7.9105-3.5416,7.9105-7.9104v-11.9493
			C685.7691,743.7369,682.2275,740.1954,677.8586,740.1954z"/>
		<path class="st1" d="M570.8071,740.1954h-62.7695c-4.3688,0-7.9105,3.5416-7.9105,7.9104v11.9493
			c0,4.3688,3.5416,7.9104,7.9105,7.9104h62.7695c4.3689,0,7.9105-3.5416,7.9105-7.9104v-11.9493
			C578.7175,743.7369,575.176,740.1954,570.8071,740.1954z"/>
		<path class="st1" d="M463.7555,740.1954h-62.7695c-4.3689,0-7.9105,3.5416-7.9105,7.9104v11.9493
			c0,4.3688,3.5416,7.9104,7.9105,7.9104h62.7695c4.3689,0,7.9105-3.5416,7.9105-7.9104v-11.9493
			C471.666,743.7369,468.1244,740.1954,463.7555,740.1954z"/>
		<path class="st1" d="M356.704,740.1954h-62.7695c-4.3688,0-7.9105,3.5416-7.9105,7.9104v11.9493
			c0,4.3688,3.5416,7.9104,7.9105,7.9104h62.7695c4.3688,0,7.9105-3.5416,7.9105-7.9104v-11.9493
			C364.6144,743.7369,361.0728,740.1954,356.704,740.1954z"/>
		<path class="st1" d="M249.6524,740.1954h-62.7695c-4.3689,0-7.9105,3.5416-7.9105,7.9104v11.9493
			c0,4.3688,3.5416,7.9104,7.9105,7.9104h62.7695c4.3689,0,7.9105-3.5416,7.9105-7.9104v-11.9493
			C257.5629,743.7369,254.0213,740.1954,249.6524,740.1954z"/>
	</g>
	<g>
		<path class="st1" d="M1159.5907,701.1064h-62.7695c-4.3688,0-7.9104,3.5416-7.9104,7.9104v11.9493
			c0,4.3688,3.5416,7.9104,7.9104,7.9104h62.7695c4.3688,0,7.9104-3.5416,7.9104-7.9104v-11.9493
			C1167.5011,704.6481,1163.9595,701.1064,1159.5907,701.1064z"/>
		<path class="st1" d="M1052.5391,701.1064h-62.7694c-4.3689,0-7.9105,3.5416-7.9105,7.9104v11.9493
			c0,4.3688,3.5416,7.9104,7.9105,7.9104h62.7694c4.3689,0,7.9105-3.5416,7.9105-7.9104v-11.9493
			C1060.4496,704.6481,1056.908,701.1064,1052.5391,701.1064z"/>
		<path class="st1" d="M945.4875,701.1064h-62.7695c-4.3688,0-7.9105,3.5416-7.9105,7.9104v11.9493
			c0,4.3688,3.5416,7.9104,7.9105,7.9104h62.7695c4.3688,0,7.9105-3.5416,7.9105-7.9104v-11.9493
			C953.398,704.6481,949.8564,701.1064,945.4875,701.1064z"/>
		<path class="st1" d="M838.436,701.1064h-62.7695c-4.3688,0-7.9105,3.5416-7.9105,7.9104v11.9493
			c0,4.3688,3.5416,7.9104,7.9105,7.9104h62.7695c4.3689,0,7.9105-3.5416,7.9105-7.9104v-11.9493
			C846.3464,704.6481,842.8049,701.1064,838.436,701.1064z"/>
		<path class="st1" d="M731.3845,701.1064h-62.7695c-4.3688,0-7.9105,3.5416-7.9105,7.9104v11.9493
			c0,4.3688,3.5416,7.9104,7.9105,7.9104h62.7695c4.3688,0,7.9105-3.5416,7.9105-7.9104v-11.9493
			C739.2949,704.6481,735.7533,701.1064,731.3845,701.1064z"/>
		<path class="st1" d="M624.3329,701.1064h-62.7695c-4.3689,0-7.9105,3.5416-7.9105,7.9104v11.9493
			c0,4.3688,3.5416,7.9104,7.9105,7.9104h62.7695c4.3688,0,7.9105-3.5416,7.9105-7.9104v-11.9493
			C632.2433,704.6481,628.7017,701.1064,624.3329,701.1064z"/>
		<path class="st1" d="M517.2813,701.1064h-62.7695c-4.3689,0-7.9105,3.5416-7.9105,7.9104v11.9493
			c0,4.3688,3.5416,7.9104,7.9105,7.9104h62.7695c4.3688,0,7.9105-3.5416,7.9105-7.9104v-11.9493
			C525.1918,704.6481,521.6501,701.1064,517.2813,701.1064z"/>
		<path class="st1" d="M410.2298,701.1064h-62.7695c-4.3688,0-7.9105,3.5416-7.9105,7.9104v11.9493
			c0,4.3688,3.5416,7.9104,7.9105,7.9104h62.7695c4.3688,0,7.9105-3.5416,7.9105-7.9104v-11.9493
			C418.1402,704.6481,414.5986,701.1064,410.2298,701.1064z"/>
		<path class="st1" d="M303.1782,701.1064h-62.7695c-4.3689,0-7.9105,3.5416-7.9105,7.9104v11.9493
			c0,4.3688,3.5416,7.9104,7.9105,7.9104h62.7695c4.3689,0,7.9105-3.5416,7.9105-7.9104v-11.9493
			C311.0887,704.6481,307.5471,701.1064,303.1782,701.1064z"/>
	</g>
</g>
<g>
	<polygon class="st2" points="1054.9299,581.2799 1056.1383,608.1479 1085.8103,608.1479 1087.0187,581.2799 	"/>
	<path class="st3" d="M1085.8107,611.9535h-29.6718c-2.0354,0-3.7102-1.6018-3.8019-3.6346l-1.2091-26.8684
		c-0.0471-1.0381,0.3333-2.0502,1.0505-2.8009c0.7185-0.7507,1.712-1.1756,2.7513-1.1756h32.0886
		c1.0394,0,2.033,0.4249,2.7502,1.1756c0.7185,0.7507,1.0988,1.7628,1.0516,2.8009l-1.2078,26.8684
		C1089.5209,610.3517,1087.8459,611.9535,1085.8107,611.9535z M1059.7772,604.3423h22.395l0.866-19.2572H1058.91L1059.7772,604.3423
		z"/>
	<path class="st3" d="M1085.8107,611.9535h-29.6718c-2.0354,0-3.7102-1.6018-3.8019-3.6346l-2.1307-47.3755
		c-0.0471-1.0381,0.3333-2.0502,1.0518-2.801c0.7173-0.7507,1.7107-1.1756,2.7501-1.1756h33.9332
		c1.0393,0,2.0328,0.4249,2.7501,1.1756c0.7185,0.7507,1.0989,1.7628,1.0518,2.801l-2.1307,47.3755
		C1089.5209,610.3517,1087.8459,611.9535,1085.8107,611.9535z M1059.7772,604.3423h22.395l1.7889-39.7643h-25.9728
		L1059.7772,604.3423z"/>
</g>
<g>
	<g>
		<path class="st3" d="M207.8401,572.0059c-0.0062,0-0.013,0-0.0198,0c-2.0942-0.0112-3.7858-1.6922-3.7858-3.7858
			c0-8.4053,19.4362-36.0578,38.2226-39.3481c2.0725-0.3605,4.0422,1.022,4.4052,3.092c0.3624,2.0701-1.022,4.0422-3.092,4.4052
			c-15.4293,2.7018-31.8781,27.401-31.9245,31.8521C211.6241,570.3074,209.925,572.0059,207.8401,572.0059z"/>
		<path class="st3" d="M208.0396,572.0059c-2.0849,0-3.7839-1.6984-3.8056-3.7845c-0.0464-4.451-16.4953-29.1502-31.9245-31.8521
			c-2.07-0.363-3.4544-2.3351-3.0921-4.4052c0.363-2.07,2.332-3.4525,4.4052-3.092c18.7864,3.2903,38.2226,30.9428,38.2226,39.3481
			c0,2.0936-1.6916,3.7746-3.7858,3.7858C208.0526,572.0059,208.0458,572.0059,208.0396,572.0059z"/>
	</g>
	<path class="st4" d="M243.7913,507.7762h-2.9055c0.74-2.0102,1.1645-4.1731,1.1645-6.4401c0-10.3113-8.359-18.6703-18.6703-18.6703
		c-1.6373,0-3.2167,0.2321-4.7298,0.628c-2.0085-4.3089-6.3663-7.302-11.4338-7.302c-6.8092,0-12.344,5.3961-12.5974,12.1434
		c-1.6256-0.7628-3.4337-1.2015-5.3482-1.2015c-6.9707,0-12.6216,5.6509-12.6216,12.6216v0.7551
		c-3.9322,0-7.1199,3.1877-7.1199,7.1199c0,3.9322,3.1876,7.1198,7.1199,7.1198h24.6692c-0.0947,0.5024-0.1495,1.019-0.1495,1.549
		c0,4.5966,3.7262,8.3228,8.3227,8.3228h34.2997c4.5965,0,8.3227-3.7262,8.3227-8.3228
		C252.114,511.5024,248.3877,507.7762,243.7913,507.7762z"/>
	<path class="st3" d="M243.7914,528.2266h-34.2999c-5.9165,0-10.8575-4.2578-11.9179-9.8708H176.649
		c-6.0243,0-10.925-4.9013-10.925-10.9256c0-4.7539,3.0518-8.8085,7.299-10.3068c1.1787-7.9091,8.0157-13.9954,16.2475-13.9954
		c0.8096,0,1.6104,0.0588,2.402,0.1765c2.197-6.5056,8.3192-11.1183,15.5439-11.1183c5.3219,0,10.2864,2.6176,13.3382,6.8617
		c0.9483-0.1251,1.8923-0.1877,2.8251-0.1877c12.3936,0,22.4762,10.0826,22.4762,22.4756c0,0.9303-0.0588,1.8582-0.1765,2.7811
		c5.7939,0.9093,10.2406,5.9363,10.2406,11.9817C255.9199,522.7858,250.479,528.2266,243.7914,528.2266z M189.2705,490.7393
		c-4.8611,0-8.8159,3.9549-8.8159,8.8159v0.7551c0,2.1016-1.704,3.8056-3.8056,3.8056c-1.8272,0-3.3138,1.4866-3.3138,3.3144
		s1.4866,3.3144,3.3138,3.3144h24.6695c1.1329,0,2.2069,0.5048,2.9298,1.3769c0.7234,0.8727,1.0202,2.0211,0.8096,3.1348
		c-0.0564,0.2986-0.0836,0.5736-0.0836,0.8424c0,2.49,2.0267,4.5167,4.5173,4.5167h34.2999c2.4906,0,4.5173-2.0267,4.5173-4.5167
		c0-2.4906-2.0267-4.5173-4.5173-4.5173h-2.9056c-1.2444,0-2.4101-0.6082-3.1218-1.6284c-0.7117-1.0208-0.8795-2.3246-0.4491-3.4922
		c0.6169-1.6761,0.9297-3.3999,0.9297-5.1249c0-8.1965-6.6685-14.8644-14.865-14.8644c-1.2221,0-2.4894,0.1697-3.7666,0.5036
		c-1.7795,0.467-3.6359-0.4082-4.4126-2.0738c-1.4451-3.1007-4.5786-5.1039-7.9841-5.1039c-4.7527,0-8.6159,3.7251-8.7943,8.4808
		c-0.0483,1.2753-0.7328,2.4423-1.8229,3.1069c-1.0895,0.6659-2.4417,0.7377-3.5968,0.1951
		C191.8131,491.0223,190.5576,490.7393,189.2705,490.7393z"/>
	<g>
		<polygon class="st5" points="184.5168,563.7738 231.3627,563.7738 222.5791,610.685 193.3004,610.685 		"/>
		<path class="st6" d="M190.6024,596.2757l2.698,14.4093h29.2787l8.4618-45.1926
			C226.8494,576.4878,216.9846,592.3606,190.6024,596.2757z"/>
		<path class="st3" d="M222.5794,614.4905h-29.2791c-1.8316,0-3.4036-1.3044-3.7406-3.1057l-8.7837-46.9109
			c-0.2081-1.1124,0.0892-2.2596,0.8127-3.1304c0.7228-0.8709,1.7963-1.3751,2.9279-1.3751h46.8459
			c1.1316,0,2.2051,0.5042,2.9279,1.3751c0.7235,0.8708,1.0208,2.018,0.8127,3.1304l-8.7831,46.9109
			C225.983,613.1861,224.4109,614.4905,222.5794,614.4905z M196.4593,606.8793h22.9612l7.3579-39.2997h-37.6775L196.4593,606.8793z"
			/>
	</g>
	<path class="st3" d="M207.9145,567.5796c-2.1016,0-3.8056-1.7033-3.8056-3.8056v-42.6965c0-2.1023,1.704-3.8056,3.8056-3.8056
		s3.8056,1.7033,3.8056,3.8056v42.6965C211.7201,565.8763,210.0161,567.5796,207.9145,567.5796z"/>
	<g>
		<path class="st4" d="M256.9105,522.889v-7.6689c0-4.9422-4.0065-8.9487-8.9487-8.9487H243.84
			c-4.9422,0-8.9487,4.0065-8.9487,8.9487v7.6471h-7.4844c-3.5943,0-6.5082,2.9138-6.5082,6.5082
			c0,3.5943,2.9138,6.5081,6.5082,6.5081h29.2867c3.5943,0,6.5082-2.9138,6.5082-6.5081
			C263.2018,525.8553,260.402,523.0061,256.9105,522.889z"/>
		<path class="st3" d="M256.6935,539.6893H227.407c-5.6867,0-10.3136-4.627-10.3136-10.3143c0-5.6861,4.6269-10.313,10.3136-10.313
			h3.6786v-3.8415c0-7.0327,5.7214-12.7547,12.7541-12.7547h4.1221c7.0327,0,12.7541,5.722,12.7541,12.7547v4.6641
			c3.7189,1.5584,6.2913,5.2129,6.2913,9.4905C267.0071,535.0623,262.3802,539.6893,256.6935,539.6893z M227.407,526.6732
			c-1.4903,0-2.7025,1.2115-2.7025,2.7018c0,1.4902,1.2122,2.7031,2.7025,2.7031h29.2865c1.4903,0,2.7025-1.2128,2.7025-2.7031
			c0-1.4556-1.1484-2.6337-2.6139-2.6833c-2.0508-0.0693-3.6774-1.7516-3.6774-3.8031v-7.6682c0-2.8362-2.3073-5.1435-5.1429-5.1435
			h-4.1221c-2.8356,0-5.1429,2.3073-5.1429,5.1435v7.6471c0,2.1022-1.704,3.8056-3.8056,3.8056H227.407z"/>
	</g>
	<g>
		<path class="st4" d="M206.5846,515.8977h-5.9832v-1.1022c0-10.174-8.2477-18.4218-18.4218-18.4218
			s-18.4218,8.2477-18.4218,18.4218v1.1022c-5.7393,0-10.3918,4.6526-10.3918,10.3918c0,5.7393,4.6525,10.3918,10.3918,10.3918
			h42.8268c5.7392,0,10.3918-4.6525,10.3918-10.3918C216.9764,520.5503,212.3237,515.8977,206.5846,515.8977z"/>
		<path class="st3" d="M206.5846,540.487H163.758c-7.8286,0-14.1979-6.3687-14.1979-14.1979
			c0-6.5496,4.4597-12.0783,10.5019-13.7086c1.1149-11.2205,10.6085-20.0122,22.1176-20.0122
			c11.3412,0,20.7258,8.5384,22.0637,19.5241h2.3413c7.8286,0,14.1973,6.3687,14.1973,14.1967
			C220.7819,534.1183,214.4132,540.487,206.5846,540.487z M182.1796,500.1795c-8.059,0-14.616,6.557-14.616,14.616v1.1025
			c0,2.1022-1.704,3.8056-3.8056,3.8056c-3.6322,0-6.5867,2.9545-6.5867,6.5854c0,3.6321,2.9545,6.5867,6.5867,6.5867h42.8266
			c3.6315,0,6.5861-2.9546,6.5861-6.5867c0-3.6309-2.9545-6.5854-6.5861-6.5854h-5.9834c-2.1016,0-3.8056-1.7034-3.8056-3.8056
			v-1.1025C196.7956,506.7365,190.2386,500.1795,182.1796,500.1795z"/>
	</g>
</g>
<g>
	<g>
		<path class="st7" d="M459.6128,475.9406V627.213h480.7737V475.9406c0-11.0343-8.9451-19.9794-19.9794-19.9794h-440.815
			C468.5579,455.9612,459.6128,464.9062,459.6128,475.9406z"/>
		<path class="st8" d="M920.4072,455.9612h-440.815c-11.0343,0-19.9794,8.9451-19.9794,19.9794v19.8957
			c0-11.0343,8.9451-19.9794,19.9794-19.9794h440.815c11.0343,0,19.9794,8.9451,19.9794,19.9794v-19.8957
			C940.3865,464.9062,931.4415,455.9612,920.4072,455.9612z"/>
		<path class="st3" d="M940.3865,631.0186H459.6128c-2.1016,0-3.8056-1.7034-3.8056-3.8056V475.9406
			c0-13.1152,10.6698-23.785,23.785-23.785h440.815c13.1152,0,23.785,10.6698,23.785,23.785V627.213
			C944.1921,629.3152,942.4888,631.0186,940.3865,631.0186z M463.4184,623.4074h473.1625V475.9406
			c0-8.9182-7.2556-16.1738-16.1738-16.1738h-440.815c-8.9181,0-16.1738,7.2556-16.1738,16.1738V623.4074z"/>
		<g>
			<path class="st3" d="M524.6332,492.3255h-27.1756c-1.0511,0-1.9028-0.8517-1.9028-1.9028c0-1.0511,0.8517-1.9028,1.9028-1.9028
				h27.1756c1.0511,0,1.9028,0.8517,1.9028,1.9028C526.5359,491.4739,525.6843,492.3255,524.6332,492.3255z"/>
			<path class="st3" d="M722.3675,503.7423h-28.14c-1.0511,0-1.9028-0.8517-1.9028-1.9028s0.8517-1.9028,1.9028-1.9028h28.14
				c1.0505,0,1.9028,0.8517,1.9028,1.9028S723.418,503.7423,722.3675,503.7423z"/>
			<path class="st3" d="M750.7509,503.7423h-10.65c-1.0505,0-1.9028-0.8517-1.9028-1.9028s0.8523-1.9028,1.9028-1.9028h10.65
				c1.0505,0,1.9028,0.8517,1.9028,1.9028S751.8014,503.7423,750.7509,503.7423z"/>
			<path class="st3" d="M740.1009,585.3514H712.685c-1.0505,0-1.9028-0.8523-1.9028-1.9028c0-1.0505,0.8523-1.9028,1.9028-1.9028
				h27.4159c1.0505,0,1.9028,0.8523,1.9028,1.9028C742.0037,584.4991,741.1514,585.3514,740.1009,585.3514z"/>
			<path class="st3" d="M705.0738,551.7354h-22.8336c-1.0511,0-1.9028-0.8523-1.9028-1.9028c0-1.0505,0.8516-1.9028,1.9028-1.9028
				h22.8336c1.0505,0,1.9028,0.8523,1.9028,1.9028C706.9766,550.8831,706.1243,551.7354,705.0738,551.7354z"/>
			<path class="st3" d="M907.4047,497.7391h-46.3015c-1.0505,0-1.9028-0.8517-1.9028-1.9028s0.8523-1.9028,1.9028-1.9028h46.3015
				c1.0505,0,1.9028,0.8517,1.9028,1.9028S908.4552,497.7391,907.4047,497.7391z"/>
			<path class="st3" d="M931.5068,532.0731h-14.5881c-1.0505,0-1.9028-0.8523-1.9028-1.9028c0-1.0505,0.8523-1.9028,1.9028-1.9028
				h14.5881c1.0505,0,1.9028,0.8523,1.9028,1.9028C933.4096,531.2208,932.5573,532.0731,931.5068,532.0731z"/>
			<path class="st3" d="M481.1779,558.7123h-9.514c-1.0511,0-1.9028-0.8523-1.9028-1.9028c0-1.0505,0.8517-1.9028,1.9028-1.9028
				h9.514c1.0511,0,1.9028,0.8523,1.9028,1.9028C483.0807,557.86,482.229,558.7123,481.1779,558.7123z"/>
			<path class="st3" d="M578.1834,503.7423h-17.088c-1.0511,0-1.9028-0.8517-1.9028-1.9028s0.8517-1.9028,1.9028-1.9028h17.088
				c1.0511,0,1.9028,0.8517,1.9028,1.9028S579.2346,503.7423,578.1834,503.7423z"/>
		</g>
	</g>
	<g>
		<g>
			<path class="st9" d="M890.2837,630.3622c-50.7193,8.8464-101.4387,8.8464-152.158,0c-12.6798-35.3856-12.6798-70.7711,0-106.1567
				c50.7193-8.8464,101.4387-8.8464,152.158,0C902.9635,559.5911,902.9635,594.9767,890.2837,630.3622z"/>
			<g>
				<path class="st10" d="M867.7548,520.882c-2.2805-0.2799-4.5607-0.5579-6.8412-0.802v114.4077
					c2.2805-0.2441,4.5607-0.522,6.8412-0.8019V520.882z"/>
				<path class="st10" d="M887.8067,523.8005c-2.2805-0.3848-4.5607-0.7697-6.8412-1.1187v109.204
					c2.2805-0.349,4.5607-0.7339,6.8412-1.1187V523.8005z"/>
				<path class="st10" d="M820.8101,636.9251c2.2803-0.0345,4.5608-0.0902,6.8411-0.1605V517.8032
					c-2.2803-0.0703-4.5608-0.1259-6.8411-0.1605V636.9251z"/>
				<path class="st10" d="M847.7031,518.8829c-2.2805-0.1751-4.5608-0.3419-6.8412-0.4812v117.7643
					c2.2805-0.1393,4.5608-0.3061,6.8412-0.4812V518.8829z"/>
				<path class="st10" d="M767.4957,520.08c-2.2805,0.2441-4.5607,0.5221-6.8412,0.802v112.8038
					c2.2805,0.2799,4.5607,0.5578,6.8412,0.8019V520.08z"/>
				<path class="st10" d="M807.5994,517.6427c-2.2804,0.0345-4.5609,0.0902-6.8412,0.1605v118.9615
					c2.2803,0.0703,4.5608,0.1259,6.8412,0.1605V517.6427z"/>
				<path class="st10" d="M740.6027,630.7673c2.2805,0.3848,4.5607,0.7697,6.8412,1.1187v-109.204
					c-2.2805,0.349-4.5607,0.7339-6.8412,1.1187V630.7673z"/>
				<path class="st10" d="M787.5476,518.4017c-2.2805,0.1393-4.5609,0.3061-6.8413,0.4812v116.8019
					c2.2805,0.1751,4.5609,0.3419,6.8413,0.4812V518.4017z"/>
			</g>
			<path class="st3" d="M814.2048,640.7717c-25.637,0-51.274-2.2199-76.7326-6.661c-1.3478-0.2354-2.4664-1.1756-2.9285-2.4652
				c-12.9269-36.0714-12.9269-72.652,0-108.7234c0.4621-1.2896,1.5807-2.2299,2.9285-2.4652
				c50.9172-8.8822,102.548-8.8822,153.4651,0c1.3478,0.2354,2.4665,1.1756,2.9285,2.4652
				c12.9269,36.0714,12.9269,72.652,0,108.7234c-0.462,1.2896-1.5807,2.2299-2.9285,2.4652
				C865.4788,638.5518,839.8417,640.7717,814.2048,640.7717z M740.9755,626.9901c48.6031,8.2256,97.8553,8.2256,146.4585,0
				c11.3375-32.993,11.3375-66.4196,0-99.4126c-48.6031-8.2256-97.8554-8.2256-146.4585,0
				C729.638,560.5705,729.638,593.9971,740.9755,626.9901z M890.2833,630.3621h0.0124H890.2833z"/>
		</g>
		<g>
			<path class="st9" d="M661.8737,630.3622c-50.7193,8.8464-101.4387,8.8464-152.158,0c-12.6798-35.3856-12.6798-70.7711,0-106.1567
				c50.7193-8.8464,101.4387-8.8464,152.158,0C674.5535,559.5911,674.5535,594.9767,661.8737,630.3622z"/>
			<g>
				<path class="st10" d="M639.3448,520.882c-2.2805-0.2799-4.5607-0.5579-6.8412-0.802v114.4077
					c2.2805-0.2441,4.5607-0.522,6.8412-0.8019V520.882z"/>
				<path class="st10" d="M659.3967,523.8005c-2.2805-0.3848-4.5607-0.7697-6.8412-1.1187v109.204
					c2.2805-0.349,4.5607-0.7339,6.8412-1.1187V523.8005z"/>
				<path class="st10" d="M592.4,636.9251c2.2803-0.0345,4.5608-0.0902,6.8412-0.1605V517.8032
					c-2.2804-0.0703-4.5609-0.1259-6.8412-0.1605V636.9251z"/>
				<path class="st10" d="M619.293,518.8829c-2.2804-0.1751-4.5608-0.3419-6.8412-0.4812v117.7643
					c2.2805-0.1393,4.5609-0.3061,6.8412-0.4812V518.8829z"/>
				<path class="st10" d="M539.0858,520.08c-2.2805,0.2441-4.5607,0.5221-6.8412,0.802v112.8038
					c2.2805,0.2799,4.5607,0.5578,6.8412,0.8019V520.08z"/>
				<path class="st10" d="M579.1893,517.6427c-2.2803,0.0345-4.5608,0.0902-6.8412,0.1605v118.9615
					c2.2804,0.0703,4.5609,0.1259,6.8412,0.1605V517.6427z"/>
				<path class="st10" d="M512.1927,630.7673c2.2805,0.3848,4.5607,0.7697,6.8412,1.1187v-109.204
					c-2.2805,0.349-4.5607,0.7339-6.8412,1.1187V630.7673z"/>
				<path class="st10" d="M559.1376,518.4017c-2.2805,0.1393-4.5608,0.3061-6.8412,0.4812v116.8019
					c2.2805,0.1751,4.5608,0.3419,6.8412,0.4812V518.4017z"/>
			</g>
			<path class="st3" d="M585.7946,640.7717c-25.6376,0-51.2746-2.2199-76.7332-6.661c-1.3484-0.2354-2.4665-1.1756-2.9285-2.4652
				c-12.9257-36.0714-12.9257-72.652,0-108.7234c0.4621-1.2896,1.5801-2.2299,2.9285-2.4652
				c50.9172-8.8822,102.5492-8.8822,153.4664,0c1.3484,0.2354,2.4664,1.1756,2.9285,2.4652
				c12.9257,36.0714,12.9257,72.652,0,108.7234c-0.4621,1.2896-1.5801,2.2299-2.9285,2.4652
				C637.0692,638.5518,611.4323,640.7717,585.7946,640.7717z M512.5654,626.9901c48.6019,8.2256,97.8566,8.2256,146.4585,0
				c11.3375-32.993,11.3375-66.4196,0-99.4126c-48.6019-8.2256-97.8566-8.2256-146.4585,0
				C501.2279,560.5705,501.2279,593.9971,512.5654,626.9901z M661.8737,630.3621h0.0124H661.8737z"/>
		</g>
	</g>
	<g>
		<path class="st11" d="M788.4738,636.9971c-58.9827-2.7481-117.9655-2.7481-176.9482,0c5.3085-30.5347,5.3085-61.0696,0-91.6044
			c58.9827,2.7481,117.9655,2.7481,176.9482,0C783.1653,575.9275,783.1653,606.4623,788.4738,636.9971z"/>
		<path class="st3" d="M788.4736,640.8027c-0.0582,0-0.1177-0.0013-0.1772-0.0037c-58.5916-2.7303-118.0051-2.7303-176.5936,0
			c-1.1552,0.0483-2.2682-0.4187-3.0313-1.2847c-0.7637-0.8659-1.0927-2.0316-0.895-3.1688c5.2079-29.9592,5.2079-60.342,0-90.3011
			c-0.1976-1.1373,0.1313-2.303,0.895-3.1689c0.7631-0.8659,1.8743-1.3342,3.0313-1.2846c58.5885,2.7303,118.002,2.7303,176.5936,0
			c1.1794-0.0421,2.2695,0.4199,3.0314,1.2846c0.7631,0.8659,1.0927,2.0316,0.8956,3.1689c-5.2091,29.9592-5.2091,60.342,0,90.3011
			c0.197,1.1372-0.1325,2.3029-0.8956,3.1688C790.6044,640.3356,789.5638,640.8027,788.4736,640.8027z M699.9997,631.14
			c28.0427,0,56.088,0.6144,83.9548,1.8421c-4.3321-27.7529-4.3321-55.8216,0-83.5745c-55.7349,2.4553-112.1765,2.4553-167.9095,0
			c4.3321,27.7529,4.3321,55.8216,0,83.5745C643.9117,631.7545,671.9564,631.14,699.9997,631.14z"/>
	</g>
	<g>
		<g>
			<path class="st12" d="M417.1556,651.3005v4.7056h565.6881v-4.7056c0-14.8203-12.0143-26.8346-26.8346-26.8346H443.9902
				C429.1699,624.4659,417.1556,636.4802,417.1556,651.3005z"/>
			<path class="st3" d="M982.844,659.8121H417.1554c-2.1016,0-3.8056-1.7034-3.8056-3.8056v-4.7062
				c0-16.8947,13.7451-30.6405,30.6405-30.6405h512.0188c16.8948,0,30.6405,13.7458,30.6405,30.6405v4.7062
				C986.6496,658.1087,984.9462,659.8121,982.844,659.8121z M420.961,652.2009h558.0774v-0.9006
				c0-12.6989-10.3304-23.0293-23.0293-23.0293H443.9903c-12.6983,0-23.0293,10.3304-23.0293,23.0293V652.2009z"/>
		</g>
		<g>
			<path class="st7" d="M400.1593,685.9337v65.1956c0,8.0937,6.5612,14.655,14.655,14.655h570.3707
				c8.0938,0,14.655-6.5613,14.655-14.655v-65.1956H400.1593z"/>
			<rect x="400.1593" y="685.9337" class="st13" width="599.6807" height="39.9253"/>
			<path class="st3" d="M985.1853,769.5897H414.8141c-10.1792,0-18.4606-8.2814-18.4606-18.4606v-65.1956
				c0-2.1022,1.7039-3.8056,3.8056-3.8056h599.6813c2.1022,0,3.8056,1.7034,3.8056,3.8056v65.1956
				C1003.6459,761.3083,995.3646,769.5897,985.1853,769.5897z M403.9646,689.739v61.39c0,5.9822,4.8672,10.8494,10.8494,10.8494
				h570.3712c5.9822,0,10.8494-4.8672,10.8494-10.8494v-61.39H403.9646z"/>
			<path class="st3" d="M974.1848,747.4845h-56.28c-1.0505,0-1.9028-0.8523-1.9028-1.9028c0-1.0505,0.8523-1.9028,1.9028-1.9028
				h56.28c1.0505,0,1.9028,0.8523,1.9028,1.9028C976.0876,746.6322,975.2353,747.4845,974.1848,747.4845z"/>
			<path class="st3" d="M521.0574,738.1043h-56.28c-1.0511,0-1.9028-0.8523-1.9028-1.9028c0-1.0505,0.8517-1.9028,1.9028-1.9028
				h56.28c1.0511,0,1.9028,0.8523,1.9028,1.9028C522.9601,737.252,522.1085,738.1043,521.0574,738.1043z"/>
			<path class="st3" d="M722.3675,727.7615h-56.28c-1.0511,0-1.9028-0.8523-1.9028-1.9028c0-1.0505,0.8517-1.9028,1.9028-1.9028
				h56.28c1.0505,0,1.9028,0.8523,1.9028,1.9028C724.2703,726.9092,723.418,727.7615,722.3675,727.7615z"/>
			<path class="st3" d="M857.0549,737.3821h-56.28c-1.0505,0-1.9028-0.8523-1.9028-1.9028c0-1.0505,0.8523-1.9028,1.9028-1.9028
				h56.28c1.0505,0,1.9028,0.8523,1.9028,1.9028C858.9577,736.5298,858.1054,737.3821,857.0549,737.3821z"/>
			<path class="st3" d="M738.9625,751.0919h-28.1393c-1.0505,0-1.9028-0.8523-1.9028-1.9028c0-1.0505,0.8523-1.9028,1.9028-1.9028
				h28.1393c1.0505,0,1.9028,0.8523,1.9028,1.9028C740.8652,750.2396,740.0129,751.0919,738.9625,751.0919z"/>
			<path class="st3" d="M560.0208,738.1043h-18.0388c-1.0511,0-1.9028-0.8523-1.9028-1.9028c0-1.0505,0.8517-1.9028,1.9028-1.9028
				h18.0388c1.0511,0,1.9028,0.8523,1.9028,1.9028C561.9235,737.252,561.0718,738.1043,560.0208,738.1043z"/>
		</g>
		<g>
			<path class="st9" d="M384.8457,679.5463l-4.0996,17.5372c-2.2882,9.7885,5.1411,19.1548,15.1935,19.1548h608.1204
				c10.0523,0,17.4816-9.3663,15.1934-19.1548l-4.0996-17.5372c-5.119-21.8979-24.6453-37.3861-47.1336-37.3861H431.9793
				C409.491,642.1602,389.9647,657.6484,384.8457,679.5463z"/>
			<g>
				<path class="st10" d="M384.8457,679.5463l-0.1199,0.5129h630.5477l-0.1199-0.5129c-0.7027-3.006-1.6857-5.8858-2.9019-8.6267
					H387.7476C386.5315,673.6605,385.5484,676.5403,384.8457,679.5463z"/>
				<path class="st10" d="M410.6671,647.1087c-4.7483,2.3314-9.0762,5.4238-12.815,9.1396h604.2952
					c-3.7389-3.7158-8.0667-6.8082-12.8151-9.1396H410.6671z"/>
				<path class="st10" d="M380.7461,697.0835c-0.5442,2.3277-0.5237,4.627-0.0643,6.7866h638.6357
					c0.4595-2.1596,0.4799-4.4589-0.0643-6.7866l-0.55-2.353H381.2961L380.7461,697.0835z"/>
			</g>
			<path class="st3" d="M1004.0597,720.0438h-608.12c-5.9599,0-11.5023-2.6783-15.2063-7.3474
				c-3.704-4.6703-5.05-10.676-3.6935-16.4785l4.0998-17.5377l0,0c5.5511-23.7429,26.4565-40.3254,50.8398-40.3254h536.041
				c24.3833,0,45.2881,16.5826,50.8379,40.3254l4.1005,17.5377c1.3564,5.8026,0.0111,11.8095-3.6929,16.4785
				C1015.562,717.3655,1010.0196,720.0438,1004.0597,720.0438z M384.8456,679.5461l3.7059,0.866l-4.0998,17.5377
				c-0.825,3.5269-0.0062,7.1776,2.2447,10.017c2.2515,2.8381,5.6204,4.4659,9.2433,4.4659h608.12
				c3.6235,0,6.9918-1.6278,9.244-4.4659c2.2509-2.8381,3.0685-6.4888,2.2447-10.017l-4.1005-17.5377
				c-4.7408-20.2817-22.5994-34.4461-43.4274-34.4461h-536.041c-20.8286,0-38.6865,14.1644-43.428,34.4461L384.8456,679.5461z"/>
		</g>
	</g>
	<g>
		<g>
			<rect x="876.22" y="765.7842" class="st7" width="52.4326" height="15.5555"/>
			<rect x="876.22" y="765.7842" class="st13" width="52.4326" height="7.7777"/>
			<path class="st3" d="M928.6526,785.1453h-52.4323c-2.1022,0-3.8056-1.7033-3.8056-3.8056v-15.5556
				c0-2.1022,1.7034-3.8056,3.8056-3.8056h52.4323c2.1022,0,3.8056,1.7034,3.8056,3.8056v15.5556
				C932.4583,783.442,930.7549,785.1453,928.6526,785.1453z M880.026,777.5341h44.821v-7.9445h-44.821V777.5341z"/>
		</g>
		<g>
			<rect x="471.3467" y="765.7842" class="st7" width="52.4326" height="15.5555"/>
			<rect x="471.3467" y="765.7842" class="st13" width="52.4326" height="7.7777"/>
			<path class="st3" d="M523.7796,785.1453h-52.4329c-2.1016,0-3.8056-1.7033-3.8056-3.8056v-15.5556
				c0-2.1022,1.704-3.8056,3.8056-3.8056h52.4329c2.1016,0,3.8056,1.7034,3.8056,3.8056v15.5556
				C527.5852,783.442,525.8812,785.1453,523.7796,785.1453z M475.1523,777.5341h44.8217v-7.9445h-44.8217V777.5341z"/>
		</g>
	</g>
</g>
<g>
	<path class="st8" d="M1199.0934,605.1917h-136.7163h-8.9154h-8.9155v176.148h17.8309v-44.7119h136.7163v44.7119h17.8311v-77.6937
		v-17.8309v-62.7926v-17.8308H1199.0934z M1199.0934,718.7969h-136.7163v-95.7744h136.7163V718.7969z"/>
	<path class="st3" d="M1216.9241,785.1453h-17.8313c-2.1022,0-3.8055-1.7033-3.8055-3.8056v-40.9064h-129.1041v40.9064
		c0,2.1023-1.7034,3.8056-3.8057,3.8056h-17.8313c-2.1022,0-3.8055-1.7033-3.8055-3.8056V605.1921
		c0-2.1022,1.7034-3.8056,3.8055-3.8056h172.3779c2.1023,0,3.8057,1.7034,3.8057,3.8056v176.1476
		C1220.7297,783.442,1219.0264,785.1453,1216.9241,785.1453z M1202.8984,777.5341h10.2201V608.9977h-164.7667v168.5364h10.2201
		v-40.9065c0-2.1022,1.7034-3.8056,3.8055-3.8056h136.7153c2.1023,0,3.8057,1.7034,3.8057,3.8056V777.5341z M1199.0928,722.6019
		h-136.7153c-2.1022,0-3.8055-1.7034-3.8055-3.8056v-95.7742c0-2.1022,1.7034-3.8056,3.8055-3.8056h136.7153
		c2.1023,0,3.8057,1.7034,3.8057,3.8056v95.7742C1202.8984,720.8986,1201.1951,722.6019,1199.0928,722.6019z M1066.1831,714.9907
		h129.1041v-88.163h-129.1041V714.9907z"/>
</g>
<g>
	<circle class="st11" cx="301.2464" cy="576.6497" r="27.9077"/>
	<path class="st3" d="M301.2463,608.3634c-17.4869,0-31.7133-14.2264-31.7133-31.7133c0-17.4869,14.2264-31.7133,31.7133-31.7133
		c17.4869,0,31.7133,14.2264,31.7133,31.7133C332.9597,594.137,318.7333,608.3634,301.2463,608.3634z M301.2463,552.548
		c-13.2899,0-24.1021,10.8123-24.1021,24.1021s10.8123,24.1021,24.1021,24.1021s24.1021-10.8123,24.1021-24.1021
		S314.5362,552.548,301.2463,552.548z"/>
	<path class="st3" d="M302.1978,578.6917c-1.4011,0-2.5371-1.136-2.5371-2.537v-19.9794c0-1.4011,1.136-2.5371,2.5371-2.5371
		s2.537,1.136,2.537,2.5371v19.9794C304.7348,577.5557,303.5988,578.6917,302.1978,578.6917z"/>
	<path class="st3" d="M301.2463,579.9602h-11.8398c-2.1017,0-3.8056-1.7034-3.8056-3.8056s1.7039-3.8056,3.8056-3.8056h11.8398
		c2.1017,0,3.8056,1.7034,3.8056,3.8056S303.348,579.9602,301.2463,579.9602z"/>
	<g>
		<path class="st3" d="M334.6636,608.9989c-1.3441,0-2.6461-0.7135-3.3392-1.9746l-8.7038-15.8418
			c-1.0121-1.8421-0.3388-4.155,1.5027-5.1671c1.8433-1.0134,4.1549-0.3394,5.1683,1.5027l8.7038,15.8418
			c1.0121,1.842,0.3388,4.1549-1.5027,5.167C335.9111,608.8466,335.283,608.9989,334.6636,608.9989z"/>
		<path class="st3" d="M267.8291,608.9989c-0.6194,0-1.2475-0.1523-1.8291-0.472c-1.8415-1.0121-2.5147-3.325-1.5027-5.167
			l8.7038-15.8418c1.0115-1.8421,3.3237-2.5173,5.1683-1.5027c1.8415,1.0121,2.5148,3.325,1.5027,5.1671l-8.7038,15.8418
			C270.4758,608.2854,269.1732,608.9989,267.8291,608.9989z"/>
	</g>
</g>
<path class="st3" d="M1006.5175,785.1453H393.4819c-2.1016,0-3.8056-1.7033-3.8056-3.8056c0-2.1022,1.704-3.8055,3.8056-3.8055
	h613.0355c2.1023,0,3.8056,1.7033,3.8056,3.8055C1010.3231,783.442,1008.6198,785.1453,1006.5175,785.1453z"/>
<g>
	<path class="st3" d="M1255.1945,785.1453H1101.531c-2.1022,0-3.8055-1.7033-3.8055-3.8056c0-2.1022,1.7034-3.8055,3.8055-3.8055
		h153.6635c2.1022,0,3.8055,1.7033,3.8055,3.8055C1259,783.442,1257.2966,785.1453,1255.1945,785.1453z"/>
	<path class="st3" d="M298.469,785.1453H144.8056c-2.1016,0-3.8056-1.7033-3.8056-3.8056c0-2.1022,1.704-3.8055,3.8056-3.8055
		H298.469c2.1016,0,3.8056,1.7033,3.8056,3.8055C302.2746,783.442,300.5706,785.1453,298.469,785.1453z"/>
</g>
<g>
	<polygon class="st11" points="1180.7372,541.9941 1093.8428,541.9941 1115.4078,459.1483 1159.1721,459.1483 	"/>
	<path class="st3" d="M1137.2903,587.6767c-2.1023,0-3.8057-1.7034-3.8057-3.8056v-41.8765c0-2.1022,1.7034-3.8056,3.8057-3.8056
		s3.8055,1.7034,3.8055,3.8056v41.8765C1141.0958,585.9733,1139.3926,587.6767,1137.2903,587.6767z"/>
	<path class="st14" d="M1159.172,459.1483h-0.9291c-2.6943,25.5714-20.4374,61.2549-62.7285,76.4236l-1.6718,6.4221h86.8944
		L1159.172,459.1483z"/>
	<path class="st3" d="M1180.7375,545.8002h-86.8945c-1.1781,0-2.2905-0.5463-3.0103-1.4779
		c-0.7209-0.9328-0.97-2.1456-0.6727-3.2865l21.5651-82.8461c0.436-1.6767,1.95-2.8468,3.683-2.8468h43.7644
		c1.733,0,3.2468,1.17,3.683,2.8468l21.5649,82.8461c0.2974,1.1409,0.0483,2.3537-0.6726,3.2865
		C1183.0281,545.2539,1181.9156,545.8002,1180.7375,545.8002z M1098.766,538.189h77.0485l-19.5841-75.2348h-37.8801
		L1098.766,538.189z"/>
	<path class="st15" d="M1165.7262,604.3557h-56.8724l8.7114-16.0358c3.3297-6.1292,9.7458-9.9454,16.7211-9.9454h6.0074
		c6.9752,0,13.3914,3.8162,16.7211,9.9454L1165.7262,604.3557z"/>
	<path class="st16" d="M1157.0146,588.3199c-1.7323-3.1889-4.3044-5.7437-7.3519-7.4687
		c-5.3013,10.5372-20.9614,17.0221-38.3998,19.0696l-2.4092,4.4348h56.8724L1157.0146,588.3199z"/>
	<path class="st3" d="M1165.7257,608.1615h-56.8721c-1.3417,0-2.5842-0.7073-3.2705-1.8607
		c-0.6863-1.1534-0.7147-2.5817-0.0731-3.761l8.7113-16.0363c3.9989-7.3622,11.6881-11.9346,20.0648-11.9346h6.007
		c8.3768,0,16.066,4.5724,20.0649,11.9334l8.7112,16.0375c0.6417,1.1794,0.6133,2.6077-0.0731,3.761
		C1168.3098,607.4542,1167.0674,608.1615,1165.7257,608.1615z M1115.252,600.5503h44.0753l-5.6564-10.4146
		c-2.6671-4.9069-7.7932-7.9556-13.3778-7.9556h-6.007c-5.5845,0-10.7106,3.0487-13.3778,7.9568L1115.252,600.5503z"/>
</g>
<g>
	<rect x="147.7653" y="610.685" class="st8" width="222.416" height="139.9555"/>
	<path class="st3" d="M370.1813,754.4465H147.7651c-2.1016,0-3.8056-1.7033-3.8056-3.8056v-139.956
		c0-2.1022,1.704-3.8056,3.8056-3.8056h222.4162c2.1016,0,3.8056,1.7034,3.8056,3.8056v139.956
		C373.9869,752.7432,372.2829,754.4465,370.1813,754.4465z M151.5707,746.8354h214.805V614.4905h-214.805V746.8354z"/>
	<rect x="159.8531" y="622.7725" class="st7" width="198.2403" height="115.7803"/>
	<rect x="214.4689" y="622.7725" class="st17" width="11.1383" height="115.7803"/>
	<g>
		<g>
			<polygon class="st7" points="351.1533,781.3397 342.2736,781.3397 332.1253,751.7565 351.1533,751.7565 			"/>
			<path class="st3" d="M351.1533,785.1453h-8.8797c-1.6259,0-3.0722-1.0331-3.6-2.5705l-10.1483-29.5826
				c-0.3983-1.1632-0.2112-2.4466,0.503-3.4464c0.7142-1.0009,1.8681-1.5943,3.097-1.5943h19.028
				c2.1016,0,3.8056,1.7033,3.8056,3.8056v29.5825C354.9589,783.442,353.2549,785.1453,351.1533,785.1453z M344.9915,777.5341
				h2.3562v-21.9714h-9.8937L344.9915,777.5341z"/>
		</g>
		<g>
			<polygon class="st7" points="166.7933,781.3397 175.673,781.3397 185.8213,751.7565 166.7933,751.7565 			"/>
			<path class="st3" d="M175.6728,785.1453h-8.8797c-2.1016,0-3.8056-1.7033-3.8056-3.8056v-29.5825
				c0-2.1023,1.704-3.8056,3.8056-3.8056h19.028c1.2289,0,2.3828,0.5934,3.097,1.5943c0.7142,0.9998,0.9012,2.2831,0.503,3.4464
				l-10.1483,29.5826C178.745,784.1121,177.2987,785.1453,175.6728,785.1453z M170.5987,777.5341h2.3562l7.5375-21.9714h-9.8937
				V777.5341z"/>
		</g>
	</g>
	<g>
		<path class="st17" d="M340.219,740.3069c-0.153,0-0.2954-0.0149-0.4243-0.0384c-1.0926-0.1995-1.8749-1.2438-1.7802-2.3785
			c0.0898-1.0814,0.9663-1.909,2.0378-1.9238v0.0409c5.4427-6.588,6.0869-16.2296,6.0231-23.9882
			c-0.0347-4.2045-0.231-9.1201-1.4271-13.6949c-0.5959-2.2781-1.4228-4.4647-2.2986-6.78
			c-0.3339-0.882-0.6671-1.7628-0.9867-2.6486c-2.6727-7.4031-4.5303-15.5271-5.5213-24.1479
			c-0.4169-3.6223-0.5915-6.5929-0.55-9.3467c0.1852-12.3533,5.0723-24.6683,13.4088-33.787l2.8084,2.5668
			c-7.7165,8.4424-12.2406,19.8419-12.4116,31.2773c-0.039,2.5866,0.1276,5.3999,0.5253,8.8561
			c0.9576,8.3273,2.7477,16.1627,5.32,23.2883c0.3128,0.8683,0.6399,1.7318,0.9663,2.5953
			c0.8721,2.3054,1.7746,4.6901,2.4212,7.1627c1.302,4.98,1.5144,10.1879,1.551,14.6265
			c0.0718,8.7708-0.7365,19.8047-7.6806,27.3466C341.4987,740.0988,340.7858,740.3069,340.219,740.3069z M340.0598,736.5087
			l0.0458,3.263c0.882-0.0124,1.629-0.7,1.7015-1.5659c0.0669-0.8077-0.5048-1.5311-1.3299-1.681
			C340.3299,736.4988,340.188,736.4963,340.0598,736.5087z"/>
		<path class="st17" d="M275.4496,740.681l-1.5126-3.4934c1.9511-0.8436,3.538-2.6287,4.9967-4.3841
			c4.1766-5.0246,7.3424-9.6788,9.6787-14.2301c0.4497-0.8759,0.8765-1.7616,1.3039-2.6486
			c0.594-1.2314,1.2078-2.5049,1.8811-3.7486c2.9013-5.3541,6.531-9.4112,10.7887-12.0573
			c5.0717-3.1516,11.1566-4.124,16.2766-2.6003c8.7131,2.5928,13.4868,11.4985,14.3521,19.1742
			c0.9204,8.1661-1.4977,16.092-4.2485,23.4393l-3.564-1.3329c2.5848-6.9051,4.8617-14.3106,4.0305-21.6802
			c-0.7247-6.4307-4.6096-13.8572-11.6553-15.9533c-4.0936-1.2177-9.0216-0.4014-13.1833,2.1865
			c-3.6885,2.2917-6.8685,5.8707-9.4508,10.6376c-0.6299,1.1632-1.2245,2.3958-1.7994,3.5875
			c-0.441,0.9155-0.882,1.8297-1.3459,2.7341c-2.4652,4.8016-5.7815,9.6837-10.1377,14.9238
			C280.1087,737.3437,278.17,739.5016,275.4496,740.681z"/>
		<path class="st17" d="M163.6149,739.8782l-2.5333-2.8393c6.3495-5.6638,8.5688-14.4135,10.6258-24.4279
			c0.9173-4.4647,1.8656-9.0804,1.7387-13.6157c-0.1344-4.8004-1.4283-9.4199-2.7984-14.3107
			c-1.11-3.9604-2.2571-8.0559-2.734-12.2666c-1.0028-8.8425,0.9539-18.4891,5.657-27.8965
			c4.5972-9.1944,11.2173-17.0583,16.4711-22.8831l2.8257,2.5494c-5.0921,5.6452-11.501,13.2515-15.8926,22.0358
			c-4.3736,8.7472-6.1996,17.6567-5.2804,25.7659c0.4429,3.9072,1.5485,7.8527,2.6176,11.6682
			c1.372,4.8983,2.791,9.9625,2.9384,15.2311c0.1394,4.9763-0.8542,9.8113-1.8155,14.4878
			C173.7415,721.6221,171.4212,732.915,163.6149,739.8782z"/>
		<path class="st17" d="M215.1144,739.3134l-3.3026-1.8904c4.2993-7.5071,5.0302-16.8168,1.9561-24.9024
			c-1.4067-3.699-3.6-7.1776-5.7208-10.5422l-8.2547-13.0942c-2.1921-3.4773-4.4591-7.0723-6.1116-11.0079
			c-3.7232-8.8711-4.2187-19.5024-1.3949-29.9344c2.3896-8.8253,7.1281-17.674,14.0845-26.301l2.962,2.3884
			c-6.6226,8.2145-11.1226,16.5938-13.3735,24.9061c-2.6033,9.6193-2.166,19.3737,1.2314,27.4667
			c1.5299,3.6458,3.7121,7.107,5.8217,10.453l8.2547,13.0941c2.2206,3.5219,4.5167,7.164,6.0577,11.2186
			C220.7992,720.3077,219.9729,730.8288,215.1144,739.3134z"/>
		<path class="st17" d="M224.4704,685.4763c-3.73-2.7774-7.9624-6.2336-11.073-10.8011
			c-4.7366-6.9571-6.6394-16.4315-5.3584-26.6776c1.1279-9.0222,4.3779-17.5278,7.5214-25.7522l3.5554,1.3577
			c-3.0629,8.0138-6.2299,16.3002-7.3009,24.8677c-1.1657,9.3257,0.5135,17.871,4.7279,24.0625
			c2.7941,4.1029,6.7242,7.3015,10.2009,9.8906L224.4704,685.4763z"/>
		<path class="st17" d="M256.0264,742.0982c-1.6049,0-3.2166-0.8412-4.176-2.1989c-0.861-1.2189-1.0387-2.651-0.4875-3.9282
			l3.4934,1.5089c-0.0019,0.031,0.0434,0.1982,0.2614,0.4064c0.2756,0.2614,0.6547,0.4249,0.9557,0.4038
			c1.2165-0.0817,2.3884-1.2499,3.2729-2.2596c6.8264-7.7858,9.8962-18.3454,12.1972-28.5977
			c0.8356-3.7263,1.6185-7.5554,2.376-11.2595c2.8777-14.074,5.8533-28.6287,12.5249-41.6733
			c7.1615-14.0034,18.6446-25.9801,32.3352-33.7239l1.8731,3.3126c-13.0489,7.3808-23.9944,18.7963-30.8201,32.1432
			c-6.435,12.5837-9.3579,26.8795-12.1849,40.7045c-0.7606,3.7201-1.5472,7.5678-2.3915,11.3288
			c-2.4107,10.7441-5.6601,21.8475-13.0483,30.2751c-1.3676,1.5584-3.2717,3.3708-5.8793,3.5467
			C256.2283,742.0945,256.1273,742.0982,256.0264,742.0982z"/>
		<path class="st17" d="M233.4554,668.0377c-2.511,0-5.0252-0.3085-7.478-0.9378l0.9464-3.6866
			c7.6001,1.9561,16.2339,0.2552,22.5301-4.4287c3.8874-2.8939,6.9961-6.8593,10.0021-10.6946l19.4132-24.7612l2.9942,2.3488
			l-19.412,24.7612c-3.1608,4.0323-6.4294,8.2009-10.7256,11.3982C246.4529,665.9602,239.9697,668.0377,233.4554,668.0377z"/>
		<path class="st17" d="M230.3516,710.1606c-1.9449,0-3.8533-0.2515-5.6861-0.7643l1.0257-3.6644
			c6.3024,1.7628,13.7996-0.2527,20.0549-5.3925c5.8434-4.8016,9.9779-11.5134,13.7117-17.9762
			c8.5886-14.8681,16.2933-30.4435,22.9005-46.2916c1.7523-4.2045,4.1531-9.9636,9.4725-12.1712l1.4581,3.5157
			c-3.5783,1.4841-5.4767,5.4606-7.4179,10.1198c-6.6697,15.9991-14.4475,31.7207-23.1179,46.73
			c-3.9084,6.7664-8.2547,13.8077-14.5912,19.0143C242.7111,707.7599,236.3629,710.1606,230.3516,710.1606z"/>
	</g>
	<path class="st3" d="M358.0937,742.3583H159.8533c-2.1016,0-3.8056-1.7034-3.8056-3.8056V622.7731
		c0-2.1022,1.704-3.8056,3.8056-3.8056h198.2404c2.1016,0,3.8056,1.7034,3.8056,3.8056v115.7796
		C361.8993,740.655,360.1953,742.3583,358.0937,742.3583z M163.6589,734.7471h190.6292V626.5787H163.6589V734.7471z"/>
	<path class="st3" d="M225.5686,742.3583c-2.1016,0-3.8056-1.7034-3.8056-3.8056V622.7731c0-2.1022,1.704-3.8056,3.8056-3.8056
		c2.1016,0,3.8056,1.7034,3.8056,3.8056v115.7796C229.3742,740.655,227.6702,742.3583,225.5686,742.3583z"/>
	<path class="st3" d="M239.5225,690.2259c-2.1016,0-3.8056-1.7034-3.8056-3.8056v-11.5159c0-2.1022,1.704-3.8056,3.8056-3.8056
		c2.1016,0,3.8056,1.7034,3.8056,3.8056v11.5159C243.3281,688.5225,241.6241,690.2259,239.5225,690.2259z"/>
</g>
<g>
	<g>
		<rect x="1166.847" y="646.502" class="st18" width="17.2511" height="71.6882"/>
		<g>
			<rect x="1166.847" y="657.7463" class="st19" width="17.2511" height="7.507"/>
			<rect x="1166.847" y="699.4387" class="st19" width="17.2511" height="7.507"/>
		</g>
		<path class="st3" d="M1184.0984,721.9962h-17.2516c-2.1022,0-3.8055-1.7034-3.8055-3.8056v-71.6882
			c0-2.1022,1.7034-3.8056,3.8055-3.8056h17.2516c2.1022,0,3.8055,1.7034,3.8055,3.8056v71.6882
			C1187.9039,720.2928,1186.2006,721.9962,1184.0984,721.9962z M1170.6525,714.3849h9.6403v-64.077h-9.6403V714.3849z"/>
	</g>
	<g>
		<rect x="1149.5959" y="646.502" class="st4" width="17.2511" height="71.6882"/>
		<g>
			<rect x="1149.5959" y="657.7463" class="st20" width="17.2511" height="7.507"/>
			<rect x="1149.5959" y="699.4387" class="st20" width="17.2511" height="7.507"/>
		</g>
		<path class="st3" d="M1166.8468,721.9962h-17.2502c-2.1023,0-3.8057-1.7034-3.8057-3.8056v-71.6882
			c0-2.1022,1.7034-3.8056,3.8057-3.8056h17.2502c2.1023,0,3.8057,1.7034,3.8057,3.8056v71.6882
			C1170.6525,720.2928,1168.9491,721.9962,1166.8468,721.9962z M1153.4021,714.3849h9.6392v-64.077h-9.6392V714.3849z"/>
	</g>
	<g>
		
			<rect x="1092.485" y="672.452" transform="matrix(0.3697 -0.9291 0.9291 0.3697 78.3362 1477.6377)" class="st21" width="71.6882" height="17.2511"/>
		<g>
			
				<rect x="1132.283" y="653.0829" transform="matrix(0.3697 -0.9291 0.9291 0.3697 101.1906 1472.5913)" class="st22" width="7.507" height="17.2511"/>
			
				<rect x="1116.868" y="691.821" transform="matrix(0.3697 -0.9291 0.9291 0.3697 55.4819 1482.6841)" class="st22" width="7.507" height="17.2511"/>
		</g>
		<path class="st3" d="M1123.0912,721.3768c-0.4771,0-0.9552-0.0892-1.4073-0.2701l-16.0288-6.3786
			c-1.9524-0.7767-2.9063-2.9892-2.1283-4.9428l26.5054-66.6078c0.7767-1.9536,2.9893-2.9099,4.9429-2.1282l16.0288,6.3773
			c0.9377,0.3729,1.6885,1.1025,2.0874,2.0304c0.4001,0.9266,0.415,1.9747,0.0409,2.9124l-26.5054,66.6091
			c-0.3729,0.9377-1.1038,1.6885-2.0304,2.0873C1124.1168,721.2727,1123.604,721.3768,1123.0912,721.3768z M1112.0051,709.0643
			l8.9578,3.564l23.6908-59.5368l-8.9565-3.564L1112.0051,709.0643z"/>
	</g>
</g>
<g>
	<rect x="283.3357" y="274.9288" class="st23" width="243.1496" height="128.5694"/>
	<g>
		<rect x="283.3357" y="303.4864" class="st24" width="243.1496" height="20.7712"/>
		<rect x="283.3357" y="354.1694" class="st24" width="243.1496" height="20.7712"/>
	</g>
	<path class="st25" d="M526.4852,407.3035H283.3358c-2.1016,0-3.8056-1.704-3.8056-3.8056V274.929
		c0-2.1016,1.7039-3.8056,3.8056-3.8056h243.1494c2.1016,0,3.8056,1.704,3.8056,3.8056v128.569
		C530.2908,405.5995,528.5868,407.3035,526.4852,407.3035z M287.1414,399.6923h235.5382V278.7346H287.1414V399.6923z"/>
</g>
<g>
	<rect x="879.9998" y="301.9304" class="st9" width="157.6009" height="117.6965"/>
	<rect x="880.0041" y="301.9302" class="st10" width="157.5917" height="45.2574"/>
	<path class="st11" d="M1037.6007,354.1276c-21.024,0.5532-42.0953,2.7484-62.9551,5.2184
		c-12.166,1.4406-24.5797,3.0437-35.4967,7.9825c-3.0578,1.3833-6.3051,3.494-6.4586,6.5162
		c-0.1325,2.609,2.1165,4.8009,3.0178,7.2893c1.4387,3.9724-0.7971,8.4095-4.306,11.2115
		c-3.5089,2.8021-8.0815,4.301-12.5542,5.6783c-12.7769,3.9346-25.7417,7.3962-38.848,10.3764v11.2267h157.6009V354.1276z"/>
	<path class="st25" d="M1037.6002,423.4327H879.9999c-2.1022,0-3.8056-1.704-3.8056-3.8056V301.9305
		c0-2.1016,1.7034-3.8056,3.8056-3.8056h157.6003c2.1023,0,3.8057,1.704,3.8057,3.8056v117.6966
		C1041.4059,421.7287,1039.7025,423.4327,1037.6002,423.4327z M883.8055,415.8215h149.9891V305.7361H883.8055V415.8215z"/>
	<path class="st14" d="M943.4153,347.1876h-42.8534c0-11.8365,9.5995-21.436,21.4174-21.436
		C933.8156,325.7516,943.4153,335.3511,943.4153,347.1876z"/>
</g>
<g>
	<circle class="st14" cx="699.9997" cy="333.8347" r="13.9539"/>
	<path class="st25" d="M699.9997,351.594c-9.7927,0-17.7595-7.9667-17.7595-17.7595s7.9667-17.7595,17.7595-17.7595
		s17.7595,7.9667,17.7595,17.7595S709.7924,351.594,699.9997,351.594z M699.9997,323.6863c-5.5956,0-10.1483,4.5526-10.1483,10.1483
		s4.5526,10.1483,10.1483,10.1483s10.1483-4.5526,10.1483-10.1483S705.5953,323.6863,699.9997,323.6863z"/>
	<path class="st25" d="M699.9997,267.5469c-2.1016,0-3.8056-1.7039-3.8056-3.8056v-65.081c0-2.1016,1.704-3.8056,3.8056-3.8056
		c2.1022,0,3.8056,1.704,3.8056,3.8056v65.081C703.8053,265.843,702.1019,267.5469,699.9997,267.5469z"/>
	<path class="st0" d="M687.3875,277.7289v29.2596h25.2245v-29.2596c0-6.9655-5.6467-12.6122-12.6122-12.6122l0,0
		C693.0341,265.1167,687.3875,270.7634,687.3875,277.7289z"/>
	<path class="st25" d="M712.6119,310.7941h-25.2245c-2.1016,0-3.8056-1.7039-3.8056-3.8056v-29.2599
		c0-9.0525,7.3653-16.4178,16.4178-16.4178c9.0532,0,16.4178,7.3653,16.4178,16.4178v29.2599
		C716.4175,309.0901,714.7142,310.7941,712.6119,310.7941z M691.1931,303.1829h17.6133v-25.4543
		c0-4.8561-3.9506-8.8066-8.8066-8.8066s-8.8066,3.9505-8.8066,8.8066V303.1829z"/>
	<polygon class="st0" points="726.5658,332.213 673.4336,332.213 687.3875,306.9885 712.6119,306.9885 	"/>
	<path class="st25" d="M726.5658,336.0186h-53.1322c-1.3472,0-2.5941-0.7123-3.2785-1.8725
		c-0.6838-1.1607-0.7036-2.5965-0.0514-3.7752l13.9539-25.2245c0.6702-1.2115,1.9456-1.9635,3.3299-1.9635h25.2245
		c1.3849,0,2.6597,0.752,3.3299,1.9635l13.9539,25.2245c0.6528,1.1787,0.633,2.6145-0.0521,3.7752
		C729.1599,335.3063,727.9124,336.0186,726.5658,336.0186z M679.8878,328.4074h40.2239l-9.7432-17.6133h-20.7369L679.8878,328.4074z
		"/>
</g>
</svg>
