<?xml version="1.0" encoding="utf-8"?>
<!-- Generator: Adobe Illustrator 18.1.1, SVG Export Plug-In . SVG Version: 6.00 Build 0)  -->
<svg version="1.1" id="Layer_1" xmlns="http://www.w3.org/2000/svg" xmlns:xlink="http://www.w3.org/1999/xlink" x="0px" y="0px"
	 width="1400px" height="980px" viewBox="0 0 1400 980" enable-background="new 0 0 1400 980" xml:space="preserve">
<g id="Layer_1_1_">
	<g id="XMLID_1_">
		<rect id="XMLID_2_" fill="#F4FFDE" width="1400" height="980"/>
		<path id="XMLID_3_" fill="#B9CC93" d="M75.9,729.3h1309l-0.9-112.2l-1120.1,7.6l-0.7-128.3c0-4.8-4.3-14-12.6-14l-158.5-0.2
			c-9.3,0-15.8,9.8-15.8,14.9L75.9,729.3z"/>
		<rect id="XMLID_4_" y="729.3" fill="#FFE5E5" width="1400" height="242.8"/>
		<polygon id="XMLID_5_" fill="#DE9B9B" points="75.9,729.3 1384.9,729.3 1354.4,762.1 44.4,762.1 		"/>
	</g>
</g>
<g id="Layer_2">
	<g id="XMLID_6_">
		<path id="XMLID_7_" fill="#9CA5A8" d="M53.5,426.3h162.2c8.5,0,15.5,7,15.5,15.5v296.3c0,8.6-7,15.5-15.5,15.5H53.5
			c-8.5,0-15.5-7-15.5-15.5V441.8C38.1,433.3,45,426.3,53.5,426.3L53.5,426.3z"/>
		<rect id="XMLID_8_" x="54.4" y="525.4" fill="#48CAB0" width="20.2" height="12.6"/>
		<path id="XMLID_9_" fill="#566270" d="M58,544.4c2,0,3.6,1.5,3.6,3.4s-1.6,3.4-3.6,3.4s-3.6-1.5-3.6-3.4S56,544.4,58,544.4
			L58,544.4z"/>
		<path id="XMLID_10_" fill="#566270" d="M67.6,544.4c2,0,3.6,1.5,3.6,3.4s-1.6,3.4-3.6,3.4s-3.6-1.5-3.6-3.4S65.6,544.4,67.6,544.4
			L67.6,544.4z"/>
		<path id="XMLID_11_" fill="#566270" d="M77.2,544.4c2,0,3.6,1.5,3.6,3.4s-1.6,3.4-3.6,3.4s-3.6-1.5-3.6-3.4S75.2,544.4,77.2,544.4
			L77.2,544.4z"/>
		<path id="XMLID_12_" fill="#EFEFEF" d="M202.4,535c5.1,0,9.4,4.2,9.4,9.4v70.9c0,5.2-4.2,9.4-9.4,9.4s-9.4-4.2-9.4-9.4v-70.9
			C193,539.2,197.2,535,202.4,535L202.4,535z"/>
		<path id="XMLID_13_" fill="#BCBCBC" d="M202.4,545.8c2.9,0,5.3,2.4,5.3,5.3v40.2c0,2.9-2.4,5.3-5.3,5.3c-2.9,0-5.3-2.4-5.3-5.3
			v-40.2C197.1,548.2,199.5,545.8,202.4,545.8L202.4,545.8z"/>
		<rect id="XMLID_14_" x="54.9" y="753.6" fill="#CECFD3" width="13.3" height="4"/>
		<path id="XMLID_15_" fill="#334760" d="M58.8,756.1h5c1,0,1.8,0.8,1.8,1.8s-0.8,1.8-1.8,1.8h-5c-1,0-1.8-0.8-1.8-1.8
			C57,756.9,57.8,756.1,58.8,756.1L58.8,756.1z"/>
		<rect id="XMLID_16_" x="199.8" y="753.6" fill="#CECFD3" width="13.3" height="4"/>
		<path id="XMLID_17_" fill="#334760" d="M203.8,756.1h5c1,0,1.8,0.8,1.8,1.8s-0.8,1.8-1.8,1.8h-5c-1,0-1.8-0.8-1.8-1.8
			C201.9,756.9,202.8,756.1,203.8,756.1L203.8,756.1z"/>
		<rect id="XMLID_18_" x="56.8" y="563.2" fill="#4D4D4D" width="21.6" height="2.9"/>
		<rect id="XMLID_19_" x="56.8" y="569.7" fill="#4D4D4D" width="21.6" height="2.9"/>
		<rect id="XMLID_20_" x="56.8" y="576.2" fill="#4D4D4D" width="21.6" height="2.9"/>
		<rect id="XMLID_21_" x="56.8" y="582.7" fill="#4D4D4D" width="21.6" height="2.9"/>
	</g>
</g>
<g id="Layer_3">
	<g id="XMLID_507_">
		<rect id="XMLID_524_" x="248" y="577.9" fill="#42687F" width="266.5" height="179.6"/>
		<rect id="XMLID_523_" x="252.2" y="715.1" fill="#34495E" width="184.5" height="42.4"/>
		<path id="XMLID_522_" fill="#EFEFEF" d="M454.3,727.4h39.9c5.3,0,9.7-4.3,9.7-9.7V595c0-5.3-4.3-9.6-9.7-9.6h-39.9
			c-5.3,0-9.7,4.3-9.7,9.6v122.8C444.7,723,449,727.4,454.3,727.4L454.3,727.4z"/>
		<path id="XMLID_521_" fill="#EFEFEF" d="M266.4,626.5h160.2c5,0,9.1,4.1,9.1,9.1v64.5c0,5-4.1,9.1-9.1,9.1H266.4
			c-5,0-9.1-4.1-9.1-9.1v-64.5C257.3,630.6,261.4,626.5,266.4,626.5L266.4,626.5z"/>
		<path id="XMLID_520_" fill="#EFEFEF" d="M261.9,617h32.7c2.4,0,4.5-2,4.5-4.5v-24.1c0-2.5-2-4.5-4.5-4.5h-32.7
			c-2.4,0-4.5,2-4.5,4.5v24.1C257.4,615,259.5,617,261.9,617L261.9,617z"/>
		<path id="XMLID_519_" fill="#EFEFEF" d="M307.5,617h32.7c2.5,0,4.5-2,4.5-4.5v-24.1c0-2.5-2-4.5-4.5-4.5h-32.7
			c-2.4,0-4.4,2-4.4,4.5v24.1C303.1,615,305,617,307.5,617L307.5,617z"/>
		<path id="XMLID_518_" fill="#EFEFEF" d="M353.1,617h32.7c2.4,0,4.4-2,4.4-4.5v-24.1c0-2.5-2-4.5-4.4-4.5h-32.7
			c-2.4,0-4.4,2-4.4,4.5v24.1C348.6,615,350.6,617,353.1,617L353.1,617z"/>
		<path id="XMLID_517_" fill="#EFEFEF" d="M398.7,617h32.7c2.4,0,4.4-2,4.4-4.5v-24.1c0-2.5-2-4.5-4.4-4.5h-32.7
			c-2.4,0-4.4,2-4.4,4.5v24.1C394.2,615,396.2,617,398.7,617L398.7,617z"/>
		<rect id="XMLID_516_" x="345.7" y="626.5" fill="#777799" width="1.5" height="82.7"/>
		<path id="XMLID_515_" fill="#EF8900" d="M335.2,643.4c1.6,0,3,1.3,3,3v4.8c0,1.3-0.9,2.5-2.1,2.8v3.6c1.2,0.4,2.1,1.5,2.1,2.8v4.8
			c0,1.6-1.3,3-3,3c-1.6,0-3-1.3-3-3v-4.8c0-1.3,0.9-2.5,2.1-2.8V654c-1.2-0.4-2.1-1.5-2.1-2.8v-4.8
			C332.2,644.7,333.6,643.4,335.2,643.4L335.2,643.4z"/>
		<path id="XMLID_514_" fill="#EF8900" d="M455,600.8c1.6,0,3,1.4,3,3v4.8c0,1.4-0.9,2.5-2.1,2.9v3.5c1.2,0.4,2.1,1.5,2.1,2.9v4.8
			c0,1.6-1.3,3-3,3s-3-1.3-3-3v-4.8c0-1.4,0.9-2.5,2.1-2.9v-3.5c-1.2-0.4-2.1-1.5-2.1-2.9v-4.8C452.1,602.2,453.4,600.8,455,600.8
			L455,600.8z"/>
		<path id="XMLID_513_" fill="#EF8900" d="M357.2,643.4c1.6,0,3,1.3,3,3v4.8c0,1.3-0.9,2.5-2.1,2.8v3.6c1.2,0.4,2.1,1.5,2.1,2.8v4.8
			c0,1.6-1.4,3-3,3s-3-1.3-3-3v-4.8c0-1.3,0.9-2.5,2.1-2.8V654c-1.2-0.4-2.1-1.5-2.1-2.8v-4.8C354.2,644.7,355.6,643.4,357.2,643.4
			L357.2,643.4z"/>
		<path id="XMLID_512_" fill="#EF8900" d="M290,590.8c2.3,0,4.3,1.9,4.3,4.3c0,2.3-1.9,4.3-4.3,4.3s-4.3-1.9-4.3-4.3
			S287.6,590.8,290,590.8L290,590.8z"/>
		<path id="XMLID_511_" fill="#EF8900" d="M311.4,590.8c2.3,0,4.3,1.9,4.3,4.3c0,2.3-1.9,4.3-4.3,4.3s-4.3-1.9-4.3-4.3
			C307.2,592.7,309.1,590.8,311.4,590.8L311.4,590.8z"/>
		<path id="XMLID_510_" fill="#EF8900" d="M381.4,590.8c2.4,0,4.3,1.9,4.3,4.3c0,2.3-1.9,4.3-4.3,4.3c-2.3,0-4.3-1.9-4.3-4.3
			S379.1,590.8,381.4,590.8L381.4,590.8z"/>
		<path id="XMLID_509_" fill="#EF8900" d="M402.9,590.8c2.4,0,4.3,1.9,4.3,4.3c0,2.3-1.9,4.3-4.3,4.3c-2.3,0-4.3-1.9-4.3-4.3
			S400.5,590.8,402.9,590.8L402.9,590.8z"/>
		<path id="XMLID_508_" fill="#47CAAD" d="M247,562h268.4c3.8,0,6.9,3.6,6.9,8s-3.1,8-6.9,8H247c-3.8,0-6.9-3.6-6.9-8
			S243.2,562,247,562L247,562z"/>
	</g>
</g>
<g id="Layer_4">
	<g id="XMLID_40_">
		<rect id="XMLID_41_" x="529.3" y="597.7" fill="#4D4D4D" width="173.2" height="160"/>
		<rect id="XMLID_42_" x="529.3" y="746.9" fill="#BCBCBC" width="173.2" height="10.8"/>
		<path id="XMLID_43_" fill="#BCBCBC" d="M550.3,609.4h131c7,0,12.7,5.8,12.7,12.8V720c0,7-5.7,12.8-12.7,12.8h-131
			c-7,0-12.7-5.8-12.7-12.8v-97.8C537.5,615.1,543.3,609.4,550.3,609.4L550.3,609.4z"/>
		<rect id="XMLID_44_" x="545" y="654" fill="#34495E" width="141.5" height="63.1"/>
		<rect id="XMLID_45_" x="570.8" y="654" fill="#9CA3A9" width="89.9" height="57.4"/>
		<polygon id="XMLID_46_" opacity="0.5" fill="#FFFFFF" enable-background="new    " points="590.1,638.9 627.9,638.9 595.8,732.7 
			558,732.7 		"/>
		<polygon id="XMLID_47_" opacity="0.5" fill="#FFFFFF" enable-background="new    " points="631.1,638.9 641.9,638.9 609.8,732.7 
			599,732.7 		"/>
		<polygon id="XMLID_48_" opacity="0.5" fill="#FFFFFF" enable-background="new    " points="647.5,638.9 644,638.9 611.9,732.7 
			615.4,732.7 		"/>
		<polygon id="XMLID_49_" opacity="0.5" fill="#FFFFFF" enable-background="new    " points="649.9,638.9 662,638.9 629.9,732.7 
			617.8,732.7 		"/>
		<rect id="XMLID_50_" x="548.3" y="638.4" fill="#FFFFFF" width="134.9" height="2.3"/>
		<path id="XMLID_51_" fill="#EEEEEF" d="M565.1,620.9c3.6,0,6.6,2.9,6.6,6.6c0,3.6-2.9,6.6-6.6,6.6c-3.6,0-6.6-2.9-6.6-6.6
			C558.5,623.8,561.5,620.9,565.1,620.9L565.1,620.9z"/>
		<path id="XMLID_52_" fill="#3E3938" d="M565.1,623.7c2.1,0,3.7,1.7,3.7,3.8s-1.7,3.7-3.7,3.7s-3.7-1.6-3.7-3.7
			C561.4,625.4,563.1,623.7,565.1,623.7L565.1,623.7z"/>
		<polygon id="XMLID_53_" fill="#EF8200" points="571.8,620.2 565.3,625.3 565.1,627.5 567.3,627.5 572.9,621.3 		"/>
		<path id="XMLID_54_" fill="#EEEEEF" d="M590.1,620.9c3.6,0,6.6,2.9,6.6,6.6c0,3.6-2.9,6.6-6.6,6.6s-6.6-2.9-6.6-6.6
			C583.6,623.8,586.5,620.9,590.1,620.9L590.1,620.9z"/>
		<path id="XMLID_55_" fill="#333333" d="M590.1,623.7c2.1,0,3.7,1.7,3.7,3.8s-1.6,3.7-3.7,3.7s-3.7-1.6-3.7-3.7
			C586.4,625.4,588.1,623.7,590.1,623.7L590.1,623.7z"/>
		<polygon id="XMLID_56_" fill="#FEAE41" points="596.8,620.2 590.4,625.3 590.1,627.5 592.3,627.5 597.9,621.3 		"/>
		<path id="XMLID_57_" fill="#EEEEEF" d="M615.2,620.9c3.6,0,6.6,2.9,6.6,6.6c0,3.6-2.9,6.6-6.6,6.6c-3.6,0-6.6-2.9-6.6-6.6
			C608.6,623.8,611.5,620.9,615.2,620.9L615.2,620.9z"/>
		<path id="XMLID_58_" fill="#333333" d="M615.2,623.7c2.1,0,3.7,1.7,3.7,3.8s-1.7,3.7-3.7,3.7c-2.1,0-3.7-1.6-3.7-3.7
			C611.4,625.4,613.1,623.7,615.2,623.7L615.2,623.7z"/>
		<polygon id="XMLID_59_" fill="#FEAE41" points="621.8,620.2 615.4,625.3 615.2,627.5 617.4,627.5 623,621.3 		"/>
		<path id="XMLID_60_" fill="#EEEEEF" d="M640.2,620.9c3.6,0,6.6,2.9,6.6,6.6c0,3.6-2.9,6.6-6.6,6.6c-3.6,0-6.6-2.9-6.6-6.6
			C633.6,623.8,636.5,620.9,640.2,620.9L640.2,620.9z"/>
		<path id="XMLID_61_" fill="#333333" d="M640.2,623.7c2.1,0,3.7,1.7,3.7,3.8s-1.7,3.7-3.7,3.7s-3.7-1.6-3.7-3.7
			C636.5,625.4,638.1,623.7,640.2,623.7L640.2,623.7z"/>
		<polygon id="XMLID_62_" fill="#FEAE41" points="646.8,620.2 640.4,625.3 640.2,627.5 642.4,627.5 648,621.3 		"/>
		<path id="XMLID_63_" fill="#EEEEEF" d="M665.2,620.9c3.6,0,6.6,2.9,6.6,6.6c0,3.6-2.9,6.6-6.6,6.6s-6.6-2.9-6.6-6.6
			C658.6,623.8,661.6,620.9,665.2,620.9L665.2,620.9z"/>
		<path id="XMLID_64_" fill="#333333" d="M665.2,623.7c2,0,3.7,1.7,3.7,3.8s-1.7,3.7-3.7,3.7c-2.1,0-3.7-1.6-3.7-3.7
			C661.5,625.4,663.1,623.7,665.2,623.7L665.2,623.7z"/>
		<polygon id="XMLID_65_" fill="#FEAE41" points="671.9,620.2 665.4,625.3 665.2,627.5 667.4,627.5 673,621.3 		"/>
		<rect id="XMLID_66_" x="529.2" y="581.2" fill="#BCBCBC" width="173.8" height="16.5"/>
	</g>
</g>
<g id="Layer_5">
	<g id="XMLID_430_">
		<rect id="XMLID_454_" x="719.2" y="578.4" fill="#777799" width="161.1" height="179"/>
		<rect id="XMLID_453_" x="736.8" y="668.7" fill="#FFFFFF" width="125.9" height="69.1"/>
		<rect id="XMLID_452_" x="736.8" y="596.5" fill="#FFFFFF" width="125.9" height="69"/>
		<path id="XMLID_451_" fill="#FEAE41" d="M791.6,678.4h16.2c1.6,0,2.3,2,2.3,3.3c0,1.8-1,3.3-2.3,3.3h-16.2c-1.6,0-2.3-2-2.3-3.3
			C789.3,679.9,790.3,678.4,791.6,678.4L791.6,678.4z"/>
		<path id="XMLID_450_" fill="#FEAE41" d="M791.6,606.1h16.2c1.3,0,2.3,1.5,2.3,3.3c0,1.3-0.7,3.3-2.3,3.3h-16.2
			c-1.3,0-2.3-1.5-2.3-3.3C789.3,608.1,790,606.1,791.6,606.1L791.6,606.1z"/>
		<rect id="XMLID_449_" x="1151.3" y="578.4" fill="#777799" width="199.6" height="179"/>
		<rect id="XMLID_448_" x="1163.6" y="588.6" fill="#FFFFFF" width="174.9" height="36.2"/>
		<path id="XMLID_447_" fill="#FEAE41" d="M1282.4,598.5c3.7,0,6.6,3,6.6,6.6c0,3.7-2.9,6.6-6.6,6.6s-6.6-3-6.6-6.6
			C1275.8,601.4,1278.8,598.5,1282.4,598.5L1282.4,598.5z"/>
		<rect id="XMLID_446_" x="1163.6" y="631.4" fill="#FFFFFF" width="174.9" height="36.2"/>
		<path id="XMLID_445_" fill="#FEAE41" d="M1282.4,641.3c3.7,0,6.6,3,6.6,6.6s-2.9,6.6-6.6,6.6s-6.6-3-6.6-6.6
			S1278.8,641.3,1282.4,641.3L1282.4,641.3z"/>
		<rect id="XMLID_444_" x="1163.6" y="674.2" fill="#FFFFFF" width="174.9" height="36.2"/>
		<path id="XMLID_443_" fill="#FEAE41" d="M1282.4,684c3.7,0,6.6,3,6.6,6.6c0,3.7-2.9,6.6-6.6,6.6s-6.6-3-6.6-6.6
			S1278.8,684,1282.4,684L1282.4,684z"/>
		<rect id="XMLID_442_" x="1163.6" y="717" fill="#FFFFFF" width="174.9" height="36.2"/>
		<path id="XMLID_441_" fill="#FEAE41" d="M1282.4,726.8c3.7,0,6.6,3,6.6,6.6s-2.9,6.6-6.6,6.6s-6.6-3-6.6-6.6
			S1278.8,726.8,1282.4,726.8L1282.4,726.8z"/>
		<rect id="XMLID_440_" x="964.2" y="581.4" fill="#FFFFFF" width="187.1" height="176"/>
		<rect id="XMLID_439_" x="880.3" y="578.4" fill="#777799" width="83.9" height="179"/>
		<rect id="XMLID_438_" x="886.6" y="595.8" fill="#FFFFFF" width="71.2" height="42.9"/>
		<path id="XMLID_437_" fill="#FEAE41" d="M941.2,599.8h5.4c2,0,3.7,1.6,3.7,3.7c0,2-1.7,3.7-3.7,3.7h-5.4c-2,0-3.7-1.6-3.7-3.7
			C937.5,601.4,939.2,599.8,941.2,599.8L941.2,599.8z"/>
		<rect id="XMLID_436_" x="886.6" y="640" fill="#FFFFFF" width="71.2" height="42.9"/>
		<path id="XMLID_435_" fill="#FEAE41" d="M941.2,644h5.4c2,0,3.7,1.6,3.7,3.7c0,2-1.7,3.7-3.7,3.7h-5.4c-2,0-3.7-1.7-3.7-3.7
			S939.2,644,941.2,644L941.2,644z"/>
		<path id="XMLID_434_" fill="#FEAE41" d="M1122.2,587.5h5.4c2,0,3.7,1.6,3.7,3.7c0,2-1.6,3.7-3.7,3.7h-5.4c-2,0-3.7-1.6-3.7-3.7
			C1118.6,589.1,1120.2,587.5,1122.2,587.5L1122.2,587.5z"/>
		<rect id="XMLID_433_" x="886.6" y="684.3" fill="#FFFFFF" width="71.2" height="42.9"/>
		<path id="XMLID_432_" fill="#FEAE41" d="M941.2,688.3h5.4c2,0,3.7,1.6,3.7,3.7c0,2-1.7,3.7-3.7,3.7h-5.4c-2,0-3.7-1.7-3.7-3.7
			C937.5,689.9,939.2,688.3,941.2,688.3L941.2,688.3z"/>
		<path id="XMLID_431_" fill="#47CAAD" d="M715.7,567h122.5h185.9h21.8h100.7h207.7c4.4,0,7.9,3.6,7.9,8s-3.6,8-7.9,8h-207.7h-100.7
			h-21.8H838.2H715.7c-4.4,0-7.9-3.6-7.9-8C707.7,570.6,711.3,567,715.7,567L715.7,567z"/>
	</g>
</g>
<g id="Layer_6">
	<g id="XMLID_92_">
		<rect id="XMLID_93_" x="1042.3" y="170.4" fill="#42687F" width="266.5" height="151.1"/>
		<path id="XMLID_94_" fill="#EFEFEF" d="M1251.9,183h34.6c4.6,0,8.4,3.8,8.4,8.3v106.2c0,4.6-3.7,8.4-8.4,8.4h-34.6
			c-4.6,0-8.3-3.8-8.3-8.4V191.3C1243.6,186.7,1247.3,183,1251.9,183L1251.9,183z"/>
		<path id="XMLID_95_" fill="#EFEFEF" d="M1065.3,264.7h160.2c5,0,9.1-4.1,9.1-9.1v-64.5c0-5-4.1-9.1-9.1-9.1h-160.2
			c-5,0-9.1,4.1-9.1,9.1v64.5C1056.2,260.6,1060.3,264.7,1065.3,264.7L1065.3,264.7z"/>
		<path id="XMLID_96_" fill="#EFEFEF" d="M1060.8,274.3h32.7c2.4,0,4.4,2,4.4,4.5V303c0,2.5-2,4.5-4.4,4.5h-32.7
			c-2.5,0-4.5-2-4.5-4.5v-24.2C1056.3,276.3,1058.3,274.3,1060.8,274.3L1060.8,274.3z"/>
		<path id="XMLID_97_" fill="#EFEFEF" d="M1106.4,274.3h32.7c2.4,0,4.5,2,4.5,4.5V303c0,2.5-2,4.5-4.5,4.5h-32.7
			c-2.5,0-4.5-2-4.5-4.5v-24.2C1101.9,276.3,1103.9,274.3,1106.4,274.3L1106.4,274.3z"/>
		<path id="XMLID_98_" fill="#EFEFEF" d="M1152,274.3h32.7c2.4,0,4.5,2,4.5,4.5V303c0,2.5-2,4.5-4.5,4.5H1152c-2.4,0-4.5-2-4.5-4.5
			v-24.2C1147.5,276.3,1149.5,274.3,1152,274.3L1152,274.3z"/>
		<path id="XMLID_99_" fill="#EFEFEF" d="M1197.6,274.3h32.7c2.4,0,4.5,2,4.5,4.5V303c0,2.5-2,4.5-4.5,4.5h-32.7
			c-2.4,0-4.5-2-4.5-4.5v-24.2C1193.1,276.3,1195.1,274.3,1197.6,274.3L1197.6,274.3z"/>
		<rect id="XMLID_100_" x="1144.6" y="182" fill="#777799" width="1.6" height="82.7"/>
		<path id="XMLID_101_" fill="#EF8900" d="M1134.1,229c1.6,0,3-1.4,3-3v-4.8c0-1.3-0.9-2.5-2.1-2.8v-3.6c1.2-0.4,2.1-1.5,2.1-2.8
			v-4.8c0-1.6-1.3-3-3-3c-1.6,0-3,1.3-3,3v4.8c0,1.3,0.9,2.5,2.1,2.8v3.6c-1.2,0.4-2.1,1.5-2.1,2.8v4.8
			C1131.1,227.6,1132.5,229,1134.1,229L1134.1,229z"/>
		<path id="XMLID_102_" fill="#EF8900" d="M1279,231c1.6,0,3-1.3,3-3v-4.8c0-1.3-0.9-2.5-2.1-2.9v-3.5c1.2-0.4,2.1-1.5,2.1-2.9v-4.8
			c0-1.6-1.4-3-3-3s-3,1.4-3,3v4.8c0,1.4,0.9,2.5,2.1,2.9v3.5c-1.2,0.4-2.1,1.5-2.1,2.9v4.8C1276,229.7,1277.4,231,1279,231
			L1279,231z"/>
		<path id="XMLID_103_" fill="#EF8900" d="M1156.1,229c1.6,0,3-1.4,3-3v-4.8c0-1.3-0.9-2.5-2.1-2.8v-3.6c1.2-0.4,2.1-1.5,2.1-2.8
			v-4.8c0-1.6-1.3-3-3-3c-1.6,0-3,1.3-3,3v4.8c0,1.3,0.9,2.5,2.1,2.8v3.6c-1.2,0.4-2.1,1.5-2.1,2.8v4.8
			C1153.1,227.6,1154.4,229,1156.1,229L1156.1,229z"/>
		<path id="XMLID_104_" fill="#EF8900" d="M1088.8,291.8c2.4,0,4.3-1.9,4.3-4.3c0-2.3-1.9-4.3-4.3-4.3c-2.3,0-4.3,1.9-4.3,4.3
			C1084.6,289.9,1086.5,291.8,1088.8,291.8L1088.8,291.8z"/>
		<path id="XMLID_105_" fill="#EF8900" d="M1110.3,291.8c2.4,0,4.3-1.9,4.3-4.3c0-2.3-1.9-4.3-4.3-4.3c-2.3,0-4.3,1.9-4.3,4.3
			S1108,291.8,1110.3,291.8L1110.3,291.8z"/>
		<path id="XMLID_106_" fill="#EF8900" d="M1180.3,291.8c2.3,0,4.3-1.9,4.3-4.3c0-2.3-1.9-4.3-4.3-4.3s-4.3,1.9-4.3,4.3
			S1177.9,291.8,1180.3,291.8L1180.3,291.8z"/>
		<path id="XMLID_107_" fill="#EF8900" d="M1201.8,291.8c2.3,0,4.3-1.9,4.3-4.3c0-2.3-1.9-4.3-4.3-4.3s-4.3,1.9-4.3,4.3
			S1199.4,291.8,1201.8,291.8L1201.8,291.8z"/>
		<path id="XMLID_108_" fill="#47CAAD" d="M1030.4,170.5h290.2c4.1,0,7.5-3.4,7.5-7.5s-3.4-7.5-7.5-7.5h-290.2
			c-4.1,0-7.5,3.4-7.5,7.5C1022.9,167.1,1026.3,170.5,1030.4,170.5L1030.4,170.5z"/>
		<path id="XMLID_109_" fill="#47CAAD" d="M1030.4,333.8h290.2c4.1,0,7.5-3.4,7.5-7.5s-3.4-7.5-7.5-7.5h-290.2
			c-4.1,0-7.5,3.4-7.5,7.5C1022.9,330.4,1026.3,333.8,1030.4,333.8L1030.4,333.8z"/>
	</g>
</g>
<g id="Layer_7">
	<g id="XMLID_308_">
		<path id="XMLID_357_" fill="#47CAAD" d="M1009.3,221.2v115.2H728V221.2H1009.3z M1004.7,225.8H732.6v106h272.1L1004.7,225.8
			L1004.7,225.8z"/>
		<rect id="XMLID_356_" x="749.4" y="242.9" fill="#5DB09E" width="238.4" height="72.5"/>
		<path id="XMLID_355_" fill="#EEEEEF" d="M948.2,298.8c-1,6.9-6,12.6-12.8,14.9v1.4h-13.3v-1.4c-6.8-2.3-11.8-8-12.8-14.9H948.2z"
			/>
		<path id="XMLID_354_" fill="#EEEEEF" d="M980.1,312.2c-2,4.3-22.5,4.3-24.5,0H980.1z"/>
		<path id="XMLID_351_" fill="#EEEEEF" d="M959.5,294h16.9v3.3c3.4-1.1,6.6,0.7,6.7,4.4c0.1,3.7-3,6.7-6.7,6.4v3.7
			c0,1.2-1,2.2-2.2,2.2h-12.6c-1.2,0-2.2-1-2.2-2.2L959.5,294L959.5,294z M976.4,299.3v6.9c2.6,0.3,4.9-1.9,4.9-4.5
			C981.2,299,978.8,298.2,976.4,299.3L976.4,299.3z"/>
		<polygon id="XMLID_350_" fill="#BECCCC" points="760.3,274.6 812.2,274.6 803.4,283.5 769.9,283.5 		"/>
		<path id="XMLID_349_" fill="#EEEEEF" d="M806.3,280.5l-3,3h-33.5l-4.2-3.9c4.8-1.5,11.6-2.4,19.1-2.4
			C793.8,277.3,801.7,278.6,806.3,280.5L806.3,280.5z"/>
		<polygon id="XMLID_348_" fill="#BECCCC" points="760.3,279.2 812.2,279.2 803.4,288.1 769.9,288.1 		"/>
		<path id="XMLID_347_" fill="#EEEEEF" d="M806.3,285.1l-3,3h-33.5l-4.2-3.9c4.8-1.5,11.6-2.4,19.1-2.4
			C793.8,281.8,801.7,283.1,806.3,285.1L806.3,285.1z"/>
		<polygon id="XMLID_346_" fill="#BECCCC" points="760.3,283.8 812.2,283.8 803.4,292.7 769.9,292.7 		"/>
		<path id="XMLID_345_" fill="#EEEEEF" d="M806.3,289.6l-3,3h-33.5l-4.2-3.9c4.8-1.5,11.6-2.4,19.1-2.4
			C793.8,286.4,801.7,287.7,806.3,289.6L806.3,289.6z"/>
		<polygon id="XMLID_344_" fill="#BECCCC" points="760.3,288.3 812.2,288.3 803.4,297.2 769.9,297.2 		"/>
		<path id="XMLID_343_" fill="#EEEEEF" d="M806.3,294.2l-3,3h-33.5l-4.2-3.9c4.8-1.5,11.6-2.4,19.1-2.4
			C793.8,290.9,801.7,292.2,806.3,294.2L806.3,294.2z"/>
		<polygon id="XMLID_342_" fill="#BECCCC" points="760.3,292.9 812.2,292.9 803.4,301.8 769.9,301.8 		"/>
		<path id="XMLID_341_" fill="#EEEEEF" d="M806.3,298.8l-3,3h-33.5l-4.2-3.9c4.8-1.5,11.6-2.4,19.1-2.4
			C793.8,295.5,801.7,296.8,806.3,298.8L806.3,298.8z"/>
		<polygon id="XMLID_340_" fill="#BECCCC" points="760.3,297.4 812.2,297.4 803.4,306.3 769.9,306.3 		"/>
		<path id="XMLID_339_" fill="#EEEEEF" d="M806.3,303.3l-3,3h-33.5l-4.2-3.9c4.8-1.5,11.6-2.4,19.1-2.4
			C793.8,300.1,801.7,301.4,806.3,303.3L806.3,303.3z"/>
		<polygon id="XMLID_338_" fill="#BECCCC" points="760.3,302 812.2,302 803.4,310.9 769.9,310.9 		"/>
		<path id="XMLID_337_" fill="#EEEEEF" d="M806.3,307.9l-3,3h-33.5l-4.2-3.9c4.8-1.5,11.6-2.4,19.1-2.4
			C793.8,304.6,801.7,305.9,806.3,307.9L806.3,307.9z"/>
		<polygon id="XMLID_336_" fill="#BECCCC" points="760.3,306.5 812.2,306.5 803.4,315.4 769.9,315.4 		"/>
		<path id="XMLID_335_" fill="#EEEEEF" d="M806.3,312.4l-3,3h-33.5l-4.2-3.9c4.8-1.5,11.6-2.4,19.1-2.4
			C793.8,309.2,801.7,310.5,806.3,312.4L806.3,312.4z"/>
		<polygon id="XMLID_334_" fill="#BECCCC" points="821,266.6 902.5,266.6 888.7,277.3 836.1,277.3 		"/>
		<path id="XMLID_333_" fill="#EEEEEF" d="M893.3,273.7l-4.7,3.6H836l-6.6-4.6c7.5-1.8,18.2-2.9,30-2.9
			C873.6,269.7,886.1,271.3,893.3,273.7L893.3,273.7z"/>
		<polygon id="XMLID_332_" fill="#BECCCC" points="821,272.1 902.5,272.1 888.7,282.7 836.1,282.7 		"/>
		<path id="XMLID_331_" fill="#EEEEEF" d="M893.3,279.1l-4.7,3.6H836l-6.6-4.7c7.5-1.8,18.2-2.9,30-2.9
			C873.6,275.2,886.1,276.7,893.3,279.1L893.3,279.1z"/>
		<polygon id="XMLID_330_" fill="#BECCCC" points="821,277.5 902.5,277.5 888.7,288.2 836.1,288.2 		"/>
		<path id="XMLID_329_" fill="#EEEEEF" d="M893.3,284.6l-4.7,3.6H836l-6.6-4.6c7.5-1.8,18.2-2.9,30-2.9
			C873.6,280.7,886.1,282.2,893.3,284.6L893.3,284.6z"/>
		<polygon id="XMLID_328_" fill="#BECCCC" points="821,283 902.5,283 888.7,293.6 836.1,293.6 		"/>
		<path id="XMLID_327_" fill="#EEEEEF" d="M893.3,290l-4.7,3.6H836l-6.6-4.7c7.5-1.8,18.2-2.9,30-2.9
			C873.6,286.1,886.1,287.6,893.3,290L893.3,290z"/>
		<polygon id="XMLID_326_" fill="#BECCCC" points="821,288.5 902.5,288.5 888.7,299.1 836.1,299.1 		"/>
		<path id="XMLID_325_" fill="#EEEEEF" d="M893.3,295.5l-4.7,3.6H836l-6.6-4.6c7.5-1.8,18.2-2.9,30-2.9
			C873.6,291.6,886.1,293.1,893.3,295.5L893.3,295.5z"/>
		<polygon id="XMLID_324_" fill="#BECCCC" points="821,293.9 902.5,293.9 888.7,304.5 836.1,304.5 		"/>
		<path id="XMLID_323_" fill="#EEEEEF" d="M893.3,300.9l-4.7,3.6H836l-6.6-4.7c7.5-1.8,18.2-2.9,30-2.9
			C873.6,297,886.1,298.6,893.3,300.9L893.3,300.9z"/>
		<polygon id="XMLID_322_" fill="#BECCCC" points="821,299.4 902.5,299.4 888.7,310 836.1,310 		"/>
		<path id="XMLID_321_" fill="#EEEEEF" d="M893.3,306.4l-4.7,3.6H836l-6.6-4.7c7.5-1.8,18.2-2.9,30-2.9
			C873.6,302.5,886.1,304,893.3,306.4L893.3,306.4z"/>
		<polygon id="XMLID_320_" fill="#BECCCC" points="821,304.8 902.5,304.8 888.7,315.4 836.1,315.4 		"/>
		<path id="XMLID_319_" fill="#EEEEEF" d="M893.3,311.8l-4.7,3.6H836l-6.6-4.6c7.5-1.8,18.2-2.9,30-2.9
			C873.6,307.9,886.1,309.5,893.3,311.8L893.3,311.8z"/>
		<path id="XMLID_316_" fill="#42687F" d="M1003.8,227v103.6H733.4V227H1003.8z M987.8,242.9H749.4v72.5h238.4L987.8,242.9
			L987.8,242.9z"/>
		<path id="XMLID_315_" fill="#FF9327" d="M868.6,319.6c2.1,0,3.7,1.7,3.7,3.8c0,2.1-1.7,3.8-3.7,3.8c-2.1,0-3.8-1.7-3.8-3.8
			C864.9,321.3,866.5,319.6,868.6,319.6L868.6,319.6z"/>
		<polygon id="XMLID_314_" opacity="0.5" fill="#FFFFFF" enable-background="new    " points="968.9,242.9 947.2,242.9 923.2,315.4 
			944.9,315.4 		"/>
		<polygon id="XMLID_313_" opacity="0.5" fill="#FFFFFF" enable-background="new    " points="983.8,242.9 971.8,242.9 947.8,315.4 
			959.7,315.4 		"/>
		<polygon id="XMLID_312_" opacity="0.5" fill="#FFFFFF" enable-background="new    " points="847.1,242.9 835.2,242.9 811.1,315.4 
			823.1,315.4 		"/>
		<polygon id="XMLID_311_" opacity="0.5" fill="#FFFFFF" enable-background="new    " points="832.9,242.9 811.2,242.9 787.1,315.4 
			808.9,315.4 		"/>
		<polygon id="XMLID_310_" opacity="0.5" fill="#FFFFFF" enable-background="new    " points="773.5,242.9 800.7,242.9 776.6,315.4 
			749.4,315.4 		"/>
		<polygon id="XMLID_309_" opacity="0.5" fill="#FFFFFF" enable-background="new    " points="803.2,242.9 805.9,242.9 781.9,315.4 
			779.1,315.4 		"/>
	</g>
</g>
<g id="Layer_8">
	<g id="XMLID_162_">
		<path id="XMLID_163_" fill="#FEAE41" d="M317.2,356.7H503c2.7,0,4.8-2.5,4.8-5.5s-2.1-5.5-4.8-5.5H317.2c-2.6,0-4.8,2.5-4.8,5.5
			C312.4,354.3,314.5,356.7,317.2,356.7L317.2,356.7z"/>
		<path id="XMLID_165_" fill="#4D4D4D" d="M338.2,351.3h-6.1v47.1c0,1.4,1,2.7,2.4,2.9v13.3c-2.2,0.5-8.8,2.9-7.3,13.2
			c1.8,12.2,6.6,21.9,6.6,21.9c-0.5-3.2-1.8-29.2,1.4-29.2c3.2,0,1.9,26,1.4,29.2c0,0,4.9-9.7,6.6-21.9c1.5-10.7-5.7-12.9-7.5-13.2
			v-13.2c1.3-0.3,2.4-1.5,2.4-2.9v-47.2H338.2z M332,350.7h6.2v-1.5H332V350.7z"/>
		<g>
			<rect x="358.1" y="349.2" fill="#4D4D4D" width="6.2" height="1.5"/>
			<path fill="#4D4D4D" d="M363.5,420.5v-1.9h-1.8v-17.3c1.4-0.3,2.4-1.5,2.4-2.9v-47.1h-6v47.1c0,1.4,1,2.7,2.4,2.9v17.3h-1.8v1.9
				c-7.4,2.1-10.4,12-10.4,18.8c0,7.4,3.8,19.1,12.8,19.1s12.8-11.7,12.8-19.1C373.9,432.5,370.9,422.6,363.5,420.5z M352.7,449.6
				c-1.4-2.9-2.3-6.4-2.2-10.3c0-3.9,0.8-7.5,2.2-10.3V449.6z M356.4,454.5c-0.6-0.5-1.1-1-1.6-1.6v-27.2c0.5-0.6,1-1.1,1.6-1.6
				V454.5z M360.1,456.2c-0.5-0.1-1.1-0.2-1.6-0.4v-32.9c0.6-0.3,1.1-0.4,1.6-0.5V456.2z M363.8,455.7c-0.6,0.3-1.1,0.4-1.6,0.5
				v-33.8c0.6,0.1,1.1,0.2,1.6,0.4V455.7z M367.6,452.9c-0.5,0.6-1,1.1-1.6,1.6v-30.4c0.5,0.5,1,1,1.6,1.6V452.9z M369.7,429
				c1.4,2.8,2.2,6.4,2.2,10.3s-0.8,7.4-2.2,10.3V429z"/>
		</g>
		<path id="XMLID_177_" fill="#4D4D4D" d="M395.9,351.3h-6.1v47.1c0,1.4,1,2.7,2.4,2.9v18.3c-10.1,0.8-13.4,16.5-13.1,24.5h27.5
			c0.3-8.1-3-23.7-13.1-24.5v-18.3c1.4-0.3,2.4-1.5,2.4-2.9L395.9,351.3L395.9,351.3z M389.7,350.7h6.2v-1.5h-6.2V350.7z"/>
		<g>
			<rect x="419.4" y="349.2" fill="#4D4D4D" width="6.2" height="1.5"/>
			<path fill="#4D4D4D" d="M432.7,424.6l-9.5-11v-12.4c1.3-0.3,2.4-1.5,2.4-2.9v-47h-0.1h-6.1v47.1c0,1.4,1,2.7,2.4,2.9v12.4
				l-9.3,10.7c-0.6,0.5-0.9,1.2-0.9,2v21.4c0,1.5,1.2,2.7,2.7,2.7h16.4c1.5,0,2.7-1.2,2.7-2.7v-21.4
				C433.4,425.7,433.2,425.1,432.7,424.6z M415.6,448.4c0,0.4-0.4,0.8-0.8,0.8c-0.5,0-0.9-0.4-0.8-0.8v-21c0-0.4,0.3-0.8,0.8-0.8
				c0.4,0,0.8,0.4,0.8,0.8V448.4z M419.4,448.4c0,0.4-0.3,0.8-0.8,0.8s-0.8-0.4-0.8-0.8v-21c0-0.4,0.3-0.8,0.8-0.8s0.8,0.4,0.8,0.8
				V448.4z M423.3,448.4c0,0.4-0.4,0.8-0.8,0.8c-0.5,0-0.9-0.4-0.8-0.8v-21c0-0.4,0.3-0.8,0.8-0.8c0.4,0,0.8,0.4,0.8,0.8V448.4z
				 M427.1,448.4c0,0.4-0.3,0.8-0.8,0.8c-0.4,0-0.8-0.4-0.8-0.8v-21c0-0.4,0.3-0.8,0.8-0.8s0.8,0.4,0.8,0.8V448.4z M431,448.4
				c0,0.4-0.3,0.8-0.8,0.8c-0.4,0-0.8-0.4-0.8-0.8v-21c0-0.4,0.3-0.8,0.8-0.8s0.8,0.4,0.8,0.8V448.4z"/>
		</g>
		<path id="XMLID_188_" fill="#4D4D4D" d="M455.1,351.3H449v47.1c0,1.4,1,2.7,2.4,2.9v17.3h-2.8v9.1h6.9v-9.1h-2.7v-17.3
			c1.4-0.3,2.4-1.5,2.4-2.9L455.1,351.3L455.1,351.3z M449,350.7h6.2v-1.5H449V350.7z"/>
		<g>
			<rect x="478.6" y="349.2" fill="#4D4D4D" width="6.2" height="1.5"/>
			<path fill="#4D4D4D" d="M482.4,418.2v-16.9c1.4-0.3,2.4-1.5,2.4-2.9v-47.1h-0.1h-6.1v47.1c0,1.4,1,2.7,2.4,2.9v16.9
				c-7.5,0.4-13.5,6.6-13.5,14.2c0,7.9,6.3,14.2,14.2,14.2c7.8,0,14.2-6.4,14.2-14.2C495.9,424.8,489.9,418.6,482.4,418.2z
				 M481.7,420.6c0.8,0,1.5,0.7,1.5,1.5s-0.7,1.5-1.5,1.5c-0.9,0-1.5-0.7-1.5-1.5S480.9,420.6,481.7,420.6z M482.5,426.7
				c0,0.4-0.3,0.8-0.8,0.8s-0.9-0.4-0.8-0.8c0-0.4,0.3-0.8,0.8-0.8C482.1,425.9,482.5,426.2,482.5,426.7z M473.7,423.7
				c0.6-0.6,1.5-0.5,2.1,0.1c0.6,0.6,0.5,1.5-0.1,2.1c-0.6,0.6-1.6,0.5-2.1-0.1C473,425.2,473.1,424.3,473.7,423.7z M471.3,433.9
				c-0.8,0-1.5-0.7-1.5-1.5s0.7-1.5,1.5-1.5s1.5,0.7,1.5,1.5S472.1,433.9,471.3,433.9z M475.1,440.6c-0.6,0.6-1.5,0.5-2.1-0.1
				c-0.6-0.6-0.6-1.6,0.1-2.1c0.6-0.5,1.5-0.5,2.1,0.1C475.7,439.1,475.7,440,475.1,440.6z M475.9,433.2c-0.5,0-0.8-0.3-0.8-0.8
				c0-0.4,0.3-0.8,0.8-0.8c0.4,0,0.8,0.3,0.8,0.8C476.7,432.8,476.4,433.2,475.9,433.2z M478,436.9c-0.3,0.4-0.9,0.4-1.2,0
				c-0.3-0.3-0.3-0.9,0.1-1.2c0.4-0.4,0.9-0.3,1.2,0C478.4,436.1,478.3,436.6,478,436.9z M478.3,428.8c-0.3,0.3-0.8,0.3-1.3,0
				c-0.3-0.4-0.2-0.9,0.1-1.2c0.4-0.4,0.9-0.4,1.2,0S478.6,428.5,478.3,428.8z M481.7,444.3c-0.9,0-1.5-0.7-1.5-1.5s0.7-1.5,1.5-1.5
				s1.5,0.7,1.5,1.5S482.5,444.3,481.7,444.3z M480.9,438.3c0-0.4,0.3-0.8,0.8-0.8c0.4,0,0.8,0.4,0.8,0.8c0,0.4-0.3,0.8-0.8,0.8
				S480.9,438.7,480.9,438.3z M481.7,434.7c-1.3,0-2.2-1-2.2-2.2s1-2.2,2.2-2.2s2.2,1,2.2,2.2S482.9,434.7,481.7,434.7z
				 M486.1,437.3c-0.3,0.3-0.8,0.3-1.2,0c-0.3-0.4-0.3-0.9,0-1.2c0.4-0.4,0.9-0.4,1.2,0S486.4,437,486.1,437.3z M485.3,429.1
				c-0.3-0.4-0.3-0.9,0.1-1.2c0.4-0.3,0.9-0.3,1.2,0.1s0.2,0.9-0.1,1.2C486.1,429.5,485.6,429.5,485.3,429.1z M486.6,432.4
				c0-0.4,0.4-0.8,0.8-0.8c0.4,0,0.8,0.3,0.8,0.8c0,0.4-0.3,0.8-0.8,0.8S486.6,432.9,486.6,432.4z M489.7,441.2
				c-0.6,0.6-1.6,0.5-2.1-0.1c-0.6-0.6-0.5-1.5,0.1-2.1c0.6-0.6,1.5-0.5,2.1,0.1C490.4,439.7,490.3,440.6,489.7,441.2z M488.2,426.4
				c-0.6-0.6-0.5-1.5,0.1-2.1c0.6-0.5,1.5-0.5,2.1,0.1c0.5,0.6,0.5,1.5-0.1,2.1C489.7,427.1,488.8,427,488.2,426.4z M492,433.9
				c-0.8,0-1.5-0.7-1.5-1.5s0.7-1.5,1.5-1.5s1.5,0.7,1.5,1.5S492.8,433.9,492,433.9z"/>
		</g>
	</g>
</g>
<g id="Layer_9">
	<g id="XMLID_127_">
		<path id="XMLID_153_" fill="#EEEEEF" d="M413.1,539c-1.4,9.7-8.5,17.7-17.9,21v1.9h-18.6V560c-9.5-3.2-16.6-11.3-17.9-21H413.1z"
			/>
		<path id="XMLID_152_" fill="#DCDCE0" d="M385.8,561.9h9.3V560c9.5-3.2,16.5-11.3,17.9-21h-27.2L385.8,561.9L385.8,561.9z"/>
		<path id="XMLID_151_" fill="#DCDCE0" d="M495.1,551.7c-6.1,13.4-69.3,13.4-75.3,0H495.1z"/>
		<path id="XMLID_150_" fill="#DCDCE0" d="M496.3,542.6c-6.1,13.4-69.3,13.4-75.3,0H496.3z"/>
		<path id="XMLID_149_" fill="#DCDCE0" d="M497.6,534.3c-6.1,13.4-69.3,13.4-75.3,0H497.6z"/>
		<path id="XMLID_148_" fill="#539AC8" d="M266.7,557.4h79.4c1.2,0,2.1,1,2.1,2.1c0,1.2-0.9,2.1-2.1,2.1h-79.4
			c-1.2,0-2.1-0.9-2.1-2.1C264.6,558.4,265.5,557.4,266.7,557.4L266.7,557.4z"/>
		<path id="XMLID_147_" fill="#377BA8" d="M306.4,557.4h39.7c1.2,0,2.1,1,2.1,2.1c0,1.2-0.9,2.1-2.1,2.1h-39.7V557.4z"/>
		<path id="XMLID_146_" fill="#5EABE3" d="M277.7,477.1h61.7c6.6,0,12.1,5.4,12.1,12.1v7.4c0,6.7-5.4,12.1-12.1,12.1h-61.7
			c-6.6,0-12-5.4-12-12.1v-7.4C265.7,482.6,271.1,477.1,277.7,477.1L277.7,477.1z"/>
		<path id="XMLID_145_" fill="#7DC3F5" d="M351.2,487.1c0.5,2.7,0.2,6.9,0.2,9.7h-85.8c-0.1-3-0.3-6.8,0.2-9.7H351.2z"/>
		<rect id="XMLID_144_" x="283.1" y="508.7" fill="#88BBD8" width="13.4" height="15.6"/>
		<rect id="XMLID_143_" x="283.1" y="512.1" fill="#A3D4F0" width="8.5" height="12.2"/>
		<path id="XMLID_142_" fill="#377BA8" d="M305.3,524.1v33.2h-37.1v-18.8c0-8,6.5-14.5,14.4-14.5L305.3,524.1L305.3,524.1z"/>
		<path id="XMLID_141_" fill="#539AC8" d="M280.1,557.4h-12v-18.8c0-6.7,4.5-12.3,10.7-14C288,532.1,288.4,549,280.1,557.4
			L280.1,557.4z"/>
		<path id="XMLID_140_" fill="#333333" d="M281,488.5c1.9,0,3.3,1.5,3.3,3.4s-1.5,3.4-3.3,3.4s-3.3-1.5-3.3-3.4
			S279.2,488.5,281,488.5L281,488.5z"/>
		<path id="XMLID_139_" fill="#333333" d="M290.5,490.1c1.1,0,2,0.9,2,2.1c0,1.1-0.9,2.1-2,2.1s-2-0.9-2-2.1
			S289.4,490.1,290.5,490.1L290.5,490.1z"/>
		<path id="XMLID_138_" fill="#333333" d="M297.6,489.8c1.1,0,2,0.9,2,2.1c0,1.1-0.9,2.1-2,2.1s-2-0.9-2-2.1
			C295.6,490.8,296.5,489.8,297.6,489.8L297.6,489.8z"/>
		<path id="XMLID_137_" fill="#333333" d="M304.7,489.6c1.1,0,2,0.9,2,2.1s-0.9,2.1-2,2.1s-2-0.9-2-2.1S303.6,489.6,304.7,489.6
			L304.7,489.6z"/>
		<path id="XMLID_136_" fill="#333333" d="M311.8,489.4c1.1,0,2,0.9,2,2.1s-0.9,2.1-2,2.1s-2-0.9-2-2.1S310.7,489.4,311.8,489.4
			L311.8,489.4z"/>
		<path id="XMLID_135_" fill="#333333" d="M318.9,489.2c1.1,0,2,0.9,2,2.1s-0.9,2.1-2,2.1s-2-0.9-2-2.1S317.8,489.2,318.9,489.2
			L318.9,489.2z"/>
		<path id="XMLID_134_" fill="#333333" d="M326.1,489c1.1,0,2,0.9,2,2.1s-0.9,2.1-2,2.1s-2-0.9-2-2.1C324,489.9,324.9,489,326.1,489
			L326.1,489z"/>
		<path id="XMLID_133_" fill="#9AA2A4" d="M349.8,520.8c0.2,1.2,0.3,2.4,0.3,3.6v15c0,9.9-8.1,18-18,18h-6.3c-9.9,0-18-8.1-18-18
			v-15c0-1.2,0.1-2.4,0.3-3.6H349.8z"/>
		<path id="XMLID_132_" fill="#B7BCBD" d="M308.3,520.8c-0.2,1.2-0.3,2.4-0.3,3.6v15c0,9.9,8.1,18,18,18h3.1v-36.6H308.3z"/>
		<rect id="XMLID_131_" x="327.7" y="515.8" fill="#808080" width="2.6" height="5"/>
		<path id="XMLID_130_" fill="#525E6A" d="M326.1,515.7h5.9c2,0,3.7-1.6,3.8-3.7h-13.5C322.3,514,324,515.7,326.1,515.7L326.1,515.7
			z"/>
		<path id="XMLID_129_" fill="#6D7680" d="M329,515.7h-3c-2.1,0-3.7-1.6-3.8-3.7h6.8V515.7z"/>
		<rect id="XMLID_128_" x="325.1" y="508.7" fill="#B4B4B2" width="8" height="3.3"/>
	</g>
</g>
<g id="Layer_10">
	<g id="XMLID_237_">
		<path id="XMLID_239_" fill="#D44235" d="M640.3,549.7v22.8c0,4.8-3.9,8.6-8.6,8.6h-59c-4.7,0-8.6-3.9-8.6-8.6v-33.2h76.2v7
			l9.8-1.5c0.4-2.5,2.4-4.7,5-5l27.8-4.1c3.3-0.5,6.2,1.7,6.8,5c0.5,3.4-1.3,6.2-5,6.8l-27.8,4.1c-2.7,0.4-5.2-1.1-6.3-3.4
			L640.3,549.7z M564.1,536.7c0-10.8,30.2-11.7,37.1-11.7v-1.3c-2-0.4-3.4-2.1-3.4-4.1c0-2.3,2-4.2,4.4-4.2s4.4,1.9,4.4,4.2
			c0,2-1.5,3.7-3.5,4.1v1.3c7,0,37.2,0.9,37.2,11.7H564.1z"/>
		<path id="XMLID_242_" fill="#EB4C3F" d="M602.2,581.1h-29.5c-4.7,0-8.6-3.9-8.6-8.6v-33.2h38.1V581.1z M602.2,515.4v21.3h-38.1
			c0-10.8,30.2-11.7,37.1-11.7v-1.3c-2-0.4-3.4-2.1-3.4-4.1C597.8,517.3,599.8,515.4,602.2,515.4L602.2,515.4z"/>
		<polygon id="XMLID_244_" fill="#333333" points="640.3,546.3 650.1,544.8 650.6,548.2 640.3,549.7 		"/>
	</g>
</g>
<g id="Layer_11">
	<g id="XMLID_73_">
		<path id="XMLID_83_" fill="#FEAD3D" d="M870.2,496.9c0.2,0.5,0.6,1.5,1.1,3c6.8-1.8,15.2-0.4,19.9,5.1c9,10.4,0.3,22.5-8.3,29.6
			c3.3,14.1-6.3,21.4-19.4,22c-14.9,0.7-25,0.7-31.3,0.2c-8-0.7-22.1-3.5-21-15.1c1.2-11.6,8.4-17.8,7-26.7
			c-1.5-8.9-14.9-13.4-14-14.1c5.5-4.3,13.2-1.8,20.3,0c0,0,0.2-1.6,0.9-4H870.2z M873.2,505.1c2.4,6.7,5.8,16.1,8,23.6
			c5.4-4.6,11.5-13.4,5.8-20.1C883.8,505,877.7,504.1,873.2,505.1L873.2,505.1z M826.2,494.8c8.3-22.1,37.6-20.4,43.4,0H826.2z"/>
		<path id="XMLID_79_" fill="#DE9733" d="M870.2,496.9c0.2,0.5,0.6,1.5,1.1,3c6.8-1.8,15.2-0.4,19.9,5.1c9,10.4,0.3,22.5-8.3,29.6
			c3.3,14.1-6.3,21.4-19.4,22c-6,0.3-11.2,0.5-15.7,0.5v-60.3h22.4V496.9z M847.7,494.8v-16c9.5-0.2,18.9,5.3,21.9,16H847.7z
			 M873.2,505.1c2.4,6.7,5.8,16.1,8,23.6c5.4-4.6,11.5-13.4,5.8-20.1C883.8,505,877.7,504.1,873.2,505.1L873.2,505.1z"/>
		<path id="XMLID_78_" fill="#DCDCE0" d="M904.2,551c-9.3,20.6-106.4,20.6-115.7,0H904.2z"/>
		<path id="XMLID_75_" fill="#DCDCE0" d="M749.3,539.2h23v4.5c4.8-1.5,8.9,1.1,9.1,6c0.2,5-4.1,9-9.1,8.7v5c0,1.6-1.3,3-3,3h-17
			c-1.6,0-3-1.3-3-3V539.2z M772.3,546.4v9.4c3.5,0.4,6.6-2.6,6.5-6.1C778.7,546.1,775.5,545,772.3,546.4L772.3,546.4z"/>
		<path id="XMLID_74_" fill="#EEEEEF" d="M749.3,539.2h11.5v27.1h-8.5c-1.6,0-3-1.3-3-3V539.2z"/>
	</g>
</g>
<g id="Layer_12">
	<g id="XMLID_259_">
		<path id="XMLID_260_" fill="#3B4967" d="M1312.2,511.1c0,0-1,0.1-1.1,1.4c0,1.2,0,2,0,2s0.1,0.5,0.6,0.6s0.6,0.1,0.6,0.1l-1.3,12
			c0,0,0.2,0.3-2.2,2.3c-2.4,2.1-3.1,3.8-3.3,10.2c-0.2,6.5-0.1,23.7,0.1,25.3s2.5,2.2,3.6,2.2c1.6,0,3.3,0,5,0c1.8,0,4.3,0,5,0
			c1.2,0,3.4-0.6,3.6-2.2c0.2-1.6,0.2-18.8,0.1-25.3c-0.2-6.5-0.9-8.2-3.3-10.2s-2.2-2.3-2.2-2.3l-1.3-12c0,0,0,0,0.6-0.1
			c0.5-0.1,0.6-0.6,0.6-0.6s0-0.8,0-2s-1-1.4-1-1.4H1312.2z"/>
		<path id="XMLID_261_" fill="#5C6985" d="M1314.2,511.1h-2c0,0-1,0.1-1.1,1.4c0,1.2,0,2,0,2s0.1,0.5,0.6,0.6s0.6,0.1,0.6,0.1
			l-1.3,12c0,0,0.2,0.3-2.2,2.3c-2.4,2.1-3.1,3.8-3.3,10.2c-0.2,6.5-0.1,23.7,0.1,25.3s2.5,2.2,3.6,2.2c1.6,0,3.3,0,5,0
			L1314.2,511.1L1314.2,511.1z"/>
		<path id="XMLID_262_" fill="#3B4967" d="M1331.8,511.1c0,0-1,0.1-1.1,1.4c0,1.2,0,2,0,2s0.1,0.5,0.6,0.6s0.6,0.1,0.6,0.1l-1.3,12
			c0,0,0.2,0.3-2.2,2.3c-2.4,2.1-3.1,3.8-3.3,10.2c-0.1,6.5-0.1,23.7,0.1,25.3s2.5,2.2,3.6,2.2c1.6,0,3.3,0,5,0c1.8,0,4.2,0,5,0
			c1.2,0,3.4-0.6,3.6-2.2c0.2-1.6,0.3-18.8,0.1-25.3c-0.2-6.5-0.9-8.2-3.3-10.2s-2.2-2.3-2.2-2.3l-1.3-12c0,0,0,0,0.6-0.1
			c0.5-0.1,0.6-0.6,0.6-0.6s0-0.8,0-2s-1-1.4-1-1.4H1331.8z"/>
		<path id="XMLID_263_" fill="#5C6985" d="M1333.8,511.1h-2c0,0-1,0.1-1.1,1.4c0,1.2,0,2,0,2s0.1,0.5,0.6,0.6s0.6,0.1,0.6,0.1
			l-1.3,12c0,0,0.2,0.3-2.2,2.3c-2.4,2.1-3.1,3.8-3.3,10.2c-0.1,6.5-0.1,23.7,0.1,25.3s2.5,2.2,3.6,2.2c1.6,0,3.3,0,5,0
			L1333.8,511.1L1333.8,511.1z"/>
		<polygon id="XMLID_264_" fill="#808080" points="1047.2,559.1 1135.1,559.1 1126.3,567 1057.3,567 		"/>
		<path id="XMLID_265_" fill="#41C4A8" d="M1047.2,557.4h87.9c-7.8-7-24-10.5-40.6-10.8c0.6-2.2-0.9-4.6-3.3-4.6s-4,2.5-3.3,4.7
			C1071.4,547.2,1055.4,550.9,1047.2,557.4L1047.2,557.4z"/>
		<polygon id="XMLID_266_" fill="#666666" points="1091.2,559.1 1135.1,559.1 1126.3,567 1091.2,567 		"/>
		<path id="XMLID_267_" fill="#33AB91" d="M1091.2,557.4h43.9c-7.8-7-24-10.5-40.6-10.8c0.6-2.2-0.9-4.6-3.3-4.6V557.4z"/>
		<rect id="XMLID_268_" x="924.1" y="504.6" fill="#808080" width="112.3" height="61.8"/>
		<path id="XMLID_269_" fill="#48CAB0" d="M929.1,507.8c0.3-8.7,7.6-15.7,16.3-15.7h69.5c8.8,0,16,7,16.4,15.7v56.1h-16.4h-69.5H929
			L929.1,507.8z"/>
		<path id="XMLID_270_" fill="#364B60" d="M965.8,520.3c4.4,0,7.9,3.5,7.9,7.9c0,4.3-3.5,7.9-7.9,7.9c-4.3,0-7.9-3.5-7.9-7.9
			C958,523.8,961.5,520.3,965.8,520.3L965.8,520.3z"/>
		<path id="XMLID_271_" fill="#EEEEEF" d="M965.8,522.6c3.1,0,5.6,2.5,5.6,5.6s-2.5,5.6-5.6,5.6s-5.6-2.5-5.6-5.6
			S962.8,522.6,965.8,522.6L965.8,522.6z"/>
		<path id="XMLID_272_" fill="#364B60" d="M947.3,520.3c4.4,0,7.9,3.5,7.9,7.9c0,4.3-3.5,7.9-7.9,7.9c-4.3,0-7.9-3.5-7.9-7.9
			C939.4,523.8,942.9,520.3,947.3,520.3L947.3,520.3z"/>
		<path id="XMLID_273_" fill="#EEEEEF" d="M947.3,522.6c3.1,0,5.6,2.5,5.6,5.6s-2.5,5.6-5.6,5.6s-5.6-2.5-5.6-5.6
			S944.2,522.6,947.3,522.6L947.3,522.6z"/>
		<polygon id="XMLID_274_" fill="#EF8900" points="946.2,516.3 946.2,527.4 948.3,527.4 948.3,516.3 		"/>
		<path id="XMLID_275_" fill="#EEEEEF" d="M941.1,539.8c1,0,1.8,0.8,1.8,1.8s-0.8,1.8-1.8,1.8s-1.7-0.8-1.7-1.8
			C939.4,540.5,940.2,539.8,941.1,539.8L941.1,539.8z"/>
		<path id="XMLID_276_" fill="#EEEEEF" d="M947.1,539.8c0.9,0,1.7,0.8,1.7,1.8s-0.8,1.8-1.7,1.8c-1,0-1.8-0.8-1.8-1.8
			C945.4,540.5,946.2,539.8,947.1,539.8L947.1,539.8z"/>
		<path id="XMLID_277_" fill="#EEEEEF" d="M953.1,539.8c1,0,1.7,0.8,1.7,1.8s-0.8,1.8-1.7,1.8c-1,0-1.7-0.8-1.7-1.8
			C951.4,540.5,952.2,539.8,953.1,539.8L953.1,539.8z"/>
		<path id="XMLID_278_" fill="#EEEEEF" d="M959.1,539.8c1,0,1.8,0.8,1.8,1.8s-0.8,1.8-1.8,1.8c-0.9,0-1.7-0.8-1.7-1.8
			C957.4,540.5,958.2,539.8,959.1,539.8L959.1,539.8z"/>
		<path id="XMLID_279_" fill="#666666" d="M951.8,495.3h55.5c1.3,0,2.4,1.1,2.4,2.4l0,0c0,1.3-1.1,2.4-2.4,2.4h-55.5
			c-1.3,0-2.4-1.1-2.4-2.4l0,0C949.4,496.4,950.4,495.3,951.8,495.3L951.8,495.3z"/>
		<path id="XMLID_280_" fill="#8BE2D1" d="M938.3,502.6h80.8c1.9,0,3.4,1.5,3.4,3.4v1.5c0,1.9-1.5,3.4-3.4,3.4h-80.8
			c-1.9,0-3.4-1.5-3.4-3.4V506C934.9,504.2,936.4,502.6,938.3,502.6L938.3,502.6z"/>
		<rect id="XMLID_281_" x="918.2" y="563.6" fill="#B3B3B3" width="124" height="4.2"/>
	</g>
</g>
</svg>
